<?xml version="1.0" standalone="no"?>
<!DOCTYPE svg PUBLIC "-//W3C//DTD SVG 20010904//EN"
 "http://www.w3.org/TR/2001/REC-SVG-20010904/DTD/svg10.dtd">
<svg version="1.0" xmlns="http://www.w3.org/2000/svg"
 width="1920.000000pt" height="1080.000000pt" viewBox="0 0 1920.000000 1080.000000"
 preserveAspectRatio="xMidYMid meet">
<metadata>
Created by potrace 1.11, written by Peter Selinger 2001-2013
</metadata>
<g transform="translate(0.000000,1080.000000) scale(0.100000,-0.100000)"
fill="#000000" stroke="none">
<path d="M0 8551 c0 -1238 3 -2256 6 -2264 3 -9 14 -13 27 -10 21 4 22 4 3
-11 -11 -9 -17 -18 -14 -22 4 -3 16 4 27 15 23 23 29 24 51 8 13 -10 13 -10 2
5 -13 16 -11 17 17 13 27 -3 29 -2 21 19 -7 20 -5 22 24 23 24 2 26 0 12 -6
-13 -5 -16 -10 -9 -14 7 -4 14 -3 18 3 9 14 42 13 48 -2 4 -10 6 -10 6 0 1 10
6 10 24 2 21 -11 21 -10 -2 8 -22 17 -22 20 -7 29 20 11 76 5 76 -8 0 -5 -5
-9 -12 -9 -6 0 -9 -3 -6 -6 7 -7 48 18 48 29 0 4 -4 6 -9 3 -4 -3 -16 3 -26
14 -10 12 -13 20 -7 20 7 0 12 -4 12 -10 0 -13 37 -13 45 -1 3 6 -3 15 -12 21
-17 10 -16 10 2 8 15 -2 20 3 19 20 0 14 3 19 9 13 5 -5 9 -21 9 -35 0 -14 4
-23 8 -21 5 3 11 -1 13 -7 3 -7 6 -1 6 14 1 20 5 26 16 22 10 -4 12 -11 5 -23
-6 -13 -5 -18 4 -18 7 0 13 7 12 16 -1 11 7 16 22 15 22 -1 22 -1 5 19 -18 20
-17 20 7 13 14 -4 35 -8 48 -9 12 -1 22 -6 22 -11 0 -6 5 -4 10 4 8 12 11 13
19 1 5 -8 11 -9 15 -3 3 5 -1 12 -9 16 -39 14 -2 73 42 68 13 -2 31 2 39 9 12
10 13 9 8 -5 -3 -9 -15 -16 -25 -16 -10 0 -19 -4 -19 -10 0 -5 -7 -7 -16 -3
-9 3 -20 0 -25 -8 -10 -16 -12 -35 -2 -26 3 4 12 2 18 -3 9 -8 14 -6 19 5 3 8
13 15 23 15 15 0 16 2 3 10 -11 7 -6 10 21 10 19 0 40 -5 45 -10 8 -8 15 -6
24 5 12 14 14 14 30 0 14 -12 20 -13 26 -4 4 7 3 10 -3 6 -6 -4 -16 0 -23 8
-9 11 -17 12 -32 4 -14 -8 -23 -8 -29 0 -5 6 -6 9 -3 6 4 -3 13 0 21 6 7 6 13
8 13 4 0 -4 6 -2 14 4 10 9 15 8 20 -4 3 -8 10 -15 17 -15 6 0 9 6 6 14 -4 10
0 12 14 9 14 -4 19 0 19 13 0 14 3 15 12 6 15 -15 58 -16 58 -1 0 5 -6 7 -13
3 -9 -5 -9 -4 0 6 6 7 10 18 9 24 -2 6 -1 8 1 4 3 -5 9 -8 14 -8 6 0 8 4 5 9
-7 11 21 8 31 -4 4 -4 4 -6 -2 -3 -5 3 -16 0 -22 -7 -10 -11 -5 -13 27 -12 38
1 38 2 22 21 -12 14 -13 17 -2 10 8 -4 20 -9 25 -9 16 0 41 -19 49 -35 3 -8 4
-5 2 8 -3 13 1 22 9 22 16 0 27 27 15 35 -12 7 -13 25 -2 25 4 0 12 -11 19
-25 8 -17 8 -25 0 -25 -6 0 -7 -3 -4 -7 4 -3 15 1 25 10 10 10 22 14 27 10 4
-5 5 -1 3 7 -3 8 -11 14 -17 13 -18 -4 -13 11 8 24 17 10 18 9 13 -9 -3 -14
-1 -19 6 -14 8 5 10 1 5 -10 -5 -13 -3 -15 7 -9 10 6 12 4 7 -7 -4 -12 -1 -14
16 -10 14 4 17 7 8 10 -9 3 -2 12 20 24 19 11 26 17 17 14 -10 -3 -20 -1 -23
3 -2 5 5 11 18 15 17 5 19 8 8 15 -17 11 -6 31 17 30 14 0 13 -2 -3 -9 -11 -5
-14 -9 -7 -9 6 -1 12 -12 12 -26 0 -14 4 -25 10 -25 5 0 7 7 4 15 -4 8 -1 21
5 29 6 7 7 16 3 21 -4 4 3 2 16 -4 24 -13 27 -22 12 -37 -6 -6 -3 -10 10 -11
13 -1 18 2 14 9 -4 6 -3 8 4 4 6 -3 13 -2 17 4 3 5 1 10 -5 10 -6 0 -9 4 -5
10 3 5 12 7 20 4 8 -4 13 -9 10 -14 -2 -4 7 -12 20 -18 20 -9 25 -9 25 3 0 9
-6 12 -17 8 -19 -7 -18 -5 11 17 11 8 17 10 13 3 -4 -6 -3 -14 3 -18 6 -4 8
-10 5 -15 -3 -5 -1 -12 5 -15 7 -4 9 6 6 32 -2 24 -8 37 -17 35 -9 -2 -9 1 1
14 11 13 15 13 19 3 2 -8 11 -20 20 -27 14 -11 14 -11 -1 -6 -10 3 -18 1 -18
-4 0 -6 11 -9 25 -6 15 3 25 0 25 -7 0 -7 3 -9 7 -6 3 4 -4 18 -17 32 -22 23
-22 25 -4 25 16 0 17 2 4 10 -10 6 -11 10 -2 10 21 0 27 -4 24 -17 -2 -7 3
-13 10 -13 10 0 10 -2 0 -9 -11 -6 -9 -9 6 -13 15 -4 19 -2 15 8 -4 10 3 14
22 14 15 0 24 4 20 10 -4 6 6 10 22 11 25 0 26 1 8 9 -16 7 -17 9 -3 9 9 1 21
-7 27 -16 8 -16 12 -16 38 -3 15 8 38 23 51 34 20 17 22 18 16 3 -3 -9 -2 -17
2 -18 5 0 24 -2 42 -3 18 -2 35 0 38 6 3 5 15 6 27 2 22 -6 22 -6 2 9 -16 13
-21 13 -30 1 -7 -9 -15 -11 -25 -4 -8 5 -10 10 -5 10 6 0 17 5 25 10 13 9 11
13 -10 30 l-25 20 33 -12 c18 -7 30 -18 28 -24 -6 -16 21 -26 28 -11 2 7 5 3
5 -8 1 -16 3 -17 11 -5 7 12 12 12 29 -4 19 -17 21 -17 21 -3 0 16 11 21 38
18 6 -1 12 3 12 9 0 5 5 10 11 10 6 0 8 -7 5 -17 -4 -10 -4 -14 0 -11 4 4 15
3 25 -2 12 -7 20 -6 25 2 4 6 3 8 -2 5 -15 -9 -38 9 -29 22 5 9 10 9 21 0 11
-9 18 -9 26 -1 18 18 27 14 21 -10 -3 -17 -2 -19 5 -9 5 7 14 11 20 7 5 -3 9
2 8 11 -2 25 25 23 55 -5 l27 -24 -3 36 c-1 19 2 33 6 30 4 -2 12 3 17 12 8
15 10 15 15 0 4 -10 3 -15 -2 -12 -18 12 -30 -18 -15 -38 8 -11 14 -15 14 -9
0 7 -5 15 -10 18 -6 4 -8 11 -4 16 3 5 9 7 14 4 5 -3 11 -1 15 5 4 6 10 8 14
5 5 -2 7 7 5 20 -1 14 2 25 7 25 5 0 9 -4 9 -10 0 -5 5 -10 11 -10 6 0 8 7 5
16 -6 14 -4 15 9 4 15 -12 15 -15 -2 -24 -10 -6 -19 -20 -21 -31 -2 -19 -1
-18 14 3 9 12 24 22 34 22 10 0 20 7 24 15 8 22 21 18 34 -9 7 -15 19 -24 31
-23 11 0 17 5 15 9 -3 5 -9 6 -14 3 -4 -3 -13 2 -19 9 -9 11 -9 16 0 22 8 4 9
3 5 -4 -4 -7 -2 -12 3 -12 6 0 11 5 11 11 0 5 4 8 9 4 6 -3 13 1 18 9 5 10 18
12 38 9 26 -5 27 -7 10 -14 -20 -7 -20 -8 1 -8 11 -1 26 5 33 12 11 10 13 10
7 0 -14 -26 10 -12 43 25 19 20 31 31 27 25 -4 -8 -1 -13 8 -13 9 0 16 -7 16
-16 0 -21 20 -7 20 14 0 9 6 24 13 33 11 15 14 15 23 -6 12 -24 1 -56 -13 -41
-4 5 -2 11 5 13 6 3 10 9 6 14 -11 18 -22 9 -20 -16 2 -13 0 -23 -4 -20 -4 2
-7 -2 -7 -10 0 -8 4 -15 9 -15 5 0 6 -6 2 -12 -4 -8 -3 -10 2 -5 5 5 9 12 9
16 0 17 47 54 72 56 58 4 58 4 37 21 -18 15 -18 15 2 5 12 -6 24 -7 28 -4 3 3
6 1 6 -6 0 -6 -9 -15 -20 -19 -14 -5 -17 -11 -10 -22 7 -10 10 -11 10 -2 0 6
7 12 15 12 8 0 22 8 32 19 10 10 28 22 40 25 18 6 21 4 16 -16 l-5 -23 21 24
c18 20 25 20 23 0 -1 -3 6 -6 14 -6 8 0 14 4 14 9 0 4 -4 8 -10 8 -5 0 -6 7
-3 17 5 12 3 14 -7 8 -8 -5 -11 -4 -6 3 8 14 34 5 32 -11 0 -7 4 -13 9 -14 15
-4 14 18 -2 47 -14 25 -14 25 4 4 10 -11 24 -19 31 -16 13 4 16 -10 5 -22 -4
-3 -8 -16 -10 -27 -2 -16 -1 -18 11 -7 7 7 11 19 8 27 -4 11 0 13 17 8 19 -5
20 -3 10 10 -11 12 -10 14 7 11 10 -1 24 -10 31 -18 9 -12 7 -17 -10 -23 -18
-7 -19 -10 -7 -17 10 -7 19 -5 27 6 7 9 19 14 28 11 8 -4 15 -2 15 3 0 6 -4
11 -10 11 -5 1 -14 2 -19 3 -5 0 -13 5 -18 9 -4 5 -1 7 7 5 8 -2 14 3 12 10
-1 8 2 11 8 7 6 -3 8 -10 6 -13 -2 -4 6 -12 18 -18 19 -9 26 -7 43 12 11 13
18 26 15 29 -3 3 -1 5 5 5 17 0 36 -27 23 -33 -6 -3 -5 -4 2 -3 7 2 12 11 10
20 -3 18 14 46 29 46 13 0 11 -34 -3 -48 -19 -19 -3 -14 20 7 22 19 30 37 12
26 -6 -3 -10 -1 -10 4 0 6 9 11 20 11 17 0 18 -3 9 -26 -5 -15 -7 -29 -4 -32
3 -4 8 4 12 16 3 12 9 22 14 22 5 0 9 8 9 18 0 14 2 15 10 2 8 -12 10 -12 11
5 l0 20 8 -20 c5 -11 7 -23 5 -26 -2 -4 3 -9 11 -13 8 -3 15 -1 15 4 0 6 6 10
14 10 9 0 12 7 9 20 -3 11 -9 18 -13 15 -4 -2 -5 8 -1 23 5 26 6 26 9 4 3 -17
8 -22 19 -18 13 5 14 4 3 -9 -13 -15 -5 -20 28 -16 6 1 12 -5 12 -12 0 -8 8
-21 18 -28 15 -13 16 -12 3 4 -22 27 1 44 30 23 29 -20 46 -20 83 -1 26 14 28
14 24 -3 -5 -17 -2 -17 18 -8 28 13 32 36 7 37 -13 0 -14 2 -4 6 8 3 19 0 25
-8 16 -20 51 -47 42 -31 -5 8 -1 12 13 12 10 0 22 -6 24 -12 3 -7 6 -1 6 14 1
15 6 30 13 34 8 5 9 2 4 -11 -6 -15 -2 -17 29 -12 19 3 37 1 40 -4 4 -5 13 -9
22 -9 13 0 13 3 3 15 -12 15 -4 21 23 16 5 -1 5 9 1 21 -6 21 -5 22 11 8 10
-8 20 -14 22 -12 8 6 32 -26 25 -34 -4 -5 1 -2 12 6 22 17 46 22 46 9 0 -6 4
-7 10 -4 5 3 -1 16 -16 30 -15 14 -21 26 -14 30 12 7 42 -19 32 -29 -3 -4 2
-4 13 0 14 6 17 4 13 -8 -4 -9 0 -15 8 -15 10 0 12 7 8 21 -6 19 -5 20 11 6
17 -14 18 -13 12 2 -4 12 -2 15 8 11 8 -3 12 -10 8 -17 -4 -6 2 -4 13 4 10 8
21 16 23 17 2 2 -3 11 -12 21 -14 15 -15 19 -2 19 8 0 12 -4 9 -9 -3 -4 0 -8
5 -8 6 0 11 -7 11 -16 0 -8 4 -13 10 -9 5 3 7 13 4 23 -5 15 -4 14 6 -1 11
-17 13 -17 30 -2 18 16 18 16 14 -7 -5 -20 -4 -21 6 -5 14 22 39 7 35 -21 -1
-9 0 -11 2 -4 3 7 10 9 16 6 7 -4 0 6 -16 23 -20 21 -23 30 -12 30 8 0 15 -3
15 -7 0 -3 9 -6 20 -6 20 0 20 1 -2 18 l-23 19 28 -12 c15 -7 27 -20 27 -30 0
-9 7 -20 16 -23 11 -4 15 -2 11 7 -6 15 29 41 43 32 6 -4 10 -14 11 -23 0 -11
2 -12 6 -4 3 7 -1 19 -7 27 -9 11 -9 15 -1 15 6 0 11 6 11 14 0 8 6 16 14 19
10 4 12 0 8 -16 -5 -20 -4 -20 11 -8 9 7 14 18 10 24 -3 5 -1 7 5 3 6 -3 13
-2 17 4 3 5 11 10 18 10 6 0 1 -7 -11 -16 -20 -14 -49 -54 -38 -54 2 0 12 8
22 18 10 9 20 17 23 17 3 1 17 7 30 14 21 12 23 11 18 -2 -3 -9 2 -21 11 -29
9 -7 13 -8 9 -1 -8 13 1 43 14 43 4 0 5 -8 2 -17 -6 -16 -5 -16 10 -5 9 8 21
11 27 7 5 -3 10 1 10 9 0 8 4 18 10 21 6 3 7 -1 4 -9 -7 -18 9 -21 37 -6 17 9
19 7 19 -17 1 -24 2 -26 11 -10 6 9 15 15 20 12 5 -4 6 -11 3 -17 -4 -5 5 -3
19 6 14 10 28 28 31 42 4 16 12 24 20 21 8 -3 20 0 27 6 11 10 11 9 1 -4 -12
-16 -7 -29 10 -29 5 0 6 5 2 12 -4 6 -3 8 3 5 5 -3 21 0 36 8 15 8 27 10 27 4
0 -5 -4 -9 -9 -9 -5 0 -11 -10 -14 -22 -5 -20 -4 -21 6 -7 11 14 14 14 26 2 7
-8 16 -11 20 -7 3 4 0 9 -7 11 -18 7 -4 23 20 23 14 0 18 5 14 16 -9 24 55 15
77 -10 17 -21 17 -21 7 7 -14 39 -13 44 6 21 12 -15 15 -15 10 -2 -2 9 1 18 8
21 12 5 49 -17 41 -24 -2 -3 5 -5 15 -6 25 -2 26 13 3 26 -10 6 -13 11 -7 11
6 0 19 -8 28 -19 16 -17 16 -20 1 -35 -9 -9 -12 -16 -6 -16 18 0 44 32 31 40
-8 5 -6 11 5 20 12 10 15 10 15 -4 0 -13 6 -16 23 -12 12 3 16 3 9 0 -6 -3
-10 -10 -7 -15 4 -5 12 -3 19 4 8 6 11 16 8 21 -3 5 1 5 9 0 8 -5 19 -9 24 -9
6 -1 9 -6 8 -13 -2 -7 2 -12 7 -12 6 0 10 4 10 9 0 5 13 12 30 16 31 7 47 22
35 33 -3 3 -10 1 -14 -6 -6 -10 -11 -9 -22 5 -7 10 -10 15 -5 11 14 -12 48 12
42 28 -3 9 -1 12 4 9 6 -3 10 -19 10 -36 0 -36 12 -37 39 -1 18 24 19 25 14 5
-3 -15 0 -25 10 -29 25 -9 40 5 25 24 -10 14 -10 15 1 5 7 -6 20 -9 27 -6 8 3
14 0 14 -6 0 -6 5 -11 11 -11 5 0 7 5 4 10 -3 6 -2 10 3 10 5 0 13 -14 18 -31
9 -30 10 -31 24 -14 8 11 10 16 4 12 -17 -10 -24 16 -9 30 7 6 15 10 18 7 2
-3 2 8 0 23 -3 16 -1 23 4 17 11 -15 41 -19 76 -9 23 6 26 10 15 23 -12 13
-11 14 8 2 19 -12 20 -14 5 -30 -9 -9 -24 -14 -33 -12 -10 2 -18 -1 -18 -7 0
-6 -3 -10 -7 -10 -20 3 -33 -2 -33 -12 0 -8 4 -8 13 -2 6 5 26 9 44 8 17 0 29
3 27 7 -3 4 0 8 6 8 6 0 9 4 6 9 -3 5 10 12 28 15 19 4 37 12 39 19 3 7 6 5 6
-4 1 -9 -6 -19 -14 -23 -8 -3 -15 -11 -14 -18 0 -10 2 -10 6 0 2 6 11 12 18
12 7 0 16 6 19 13 4 6 4 2 2 -9 -2 -12 0 -28 5 -35 7 -11 9 -11 9 -1 0 8 5 10
13 6 9 -6 9 -4 -1 7 -15 17 -16 43 0 33 8 -5 9 -2 5 10 -4 9 -3 15 2 11 6 -3
15 3 21 12 11 17 11 17 6 1 -3 -10 -1 -18 5 -18 6 0 7 -4 4 -10 -3 -5 -1 -18
4 -27 6 -10 11 -12 11 -5 0 6 5 12 10 12 6 0 19 9 30 20 22 22 56 28 44 8 -4
-7 2 -4 14 6 21 18 23 18 40 3 24 -22 39 -22 18 -1 -23 23 -20 32 10 26 16 -3
23 -9 20 -19 -4 -11 -1 -11 14 -3 11 6 20 16 20 23 0 9 -2 9 -8 1 -5 -9 -10
-8 -19 1 -9 10 -8 14 7 18 11 3 21 -1 24 -10 3 -8 10 -11 16 -8 5 3 10 -1 10
-9 0 -19 16 -21 26 -4 4 7 3 8 -4 4 -8 -5 -12 0 -12 12 0 11 7 23 16 26 11 4
15 2 11 -8 -6 -15 -2 -15 41 0 9 4 29 8 43 9 25 2 25 1 10 -15 -9 -9 -19 -15
-23 -13 -4 2 -9 -1 -12 -6 -4 -5 2 -8 11 -7 9 2 19 8 21 14 2 6 9 9 17 6 9 -4
13 1 11 12 -2 10 -11 21 -22 25 -10 4 -13 8 -6 8 7 1 23 -4 34 -10 16 -9 23
-8 29 2 7 11 9 11 9 1 0 -10 4 -10 20 0 15 9 23 10 28 2 12 -19 52 -37 52 -23
0 6 7 8 16 5 8 -3 12 -2 9 4 -3 6 1 10 9 10 8 0 17 8 19 18 4 15 5 15 6 -2 1
-17 4 -16 25 7 20 22 25 24 30 10 6 -14 9 -14 26 2 11 10 23 15 26 12 4 -4 -1
-9 -10 -13 -22 -8 -20 -21 5 -35 20 -10 21 -9 17 9 -4 12 0 23 7 26 9 3 11 -2
8 -17 -4 -18 -3 -19 6 -7 6 9 11 10 11 3 0 -6 9 -9 21 -6 21 6 21 7 4 19 -16
12 -16 13 3 11 11 0 18 -5 16 -9 -3 -4 2 -8 11 -8 12 0 15 5 10 18 -5 14 -4
15 6 5 7 -7 19 -13 27 -13 8 0 10 5 6 13 -4 6 1 4 12 -5 19 -16 22 -17 45 -1
l24 17 -20 -23 c-10 -12 -26 -20 -35 -18 -10 2 -16 -2 -16 -13 0 -16 2 -16 31
1 16 9 39 15 49 14 11 -2 27 1 35 6 13 8 11 9 -6 6 -21 -5 -29 6 -24 35 0 4
-5 5 -13 2 -7 -3 -18 2 -25 9 -9 12 -8 16 3 20 10 4 13 1 9 -9 -3 -7 0 -14 6
-14 6 0 16 11 21 25 9 25 30 35 30 14 0 -5 -5 -7 -10 -4 -6 3 -10 -1 -10 -9 0
-21 21 -31 32 -15 8 11 9 10 5 -3 -8 -23 17 -30 31 -8 8 13 21 18 47 16 31 -3
34 -1 23 13 -8 11 -6 11 8 -2 15 -14 16 -19 6 -26 -11 -7 -10 -9 3 -14 9 -4
13 -3 10 3 -3 6 2 10 11 10 16 0 16 1 -2 15 -10 8 -14 15 -9 15 6 0 3 5 -5 10
-12 7 -10 9 7 8 12 -1 19 -7 16 -15 -3 -7 0 -13 6 -13 6 0 11 5 11 11 0 5 4 8
9 5 5 -4 12 0 14 6 4 9 6 10 6 1 1 -6 -3 -15 -9 -18 -15 -9 -12 -23 8 -34 16
-8 18 -6 16 20 -1 16 2 26 7 23 5 -3 7 -10 4 -15 -4 -5 -1 -9 4 -9 18 0 13 18
-11 41 l-23 21 25 -12 c13 -7 31 -19 38 -27 11 -11 16 -11 28 2 16 16 34 20
34 7 0 -4 -8 -12 -19 -19 -10 -6 -21 -22 -24 -35 -5 -21 -5 -21 7 -6 7 10 16
15 20 11 4 -4 4 0 0 10 -4 11 -1 17 9 17 9 0 22 7 31 15 8 8 17 11 20 6 3 -5
-1 -11 -9 -15 -8 -3 -15 -11 -14 -18 0 -10 2 -10 6 0 2 6 9 12 14 12 6 0 7 -6
3 -12 -6 -9 -3 -9 9 1 12 9 14 18 7 31 -9 16 -7 17 14 7 16 -8 22 -18 19 -32
-3 -19 -3 -19 5 -1 5 11 11 15 15 9 7 -11 32 -10 59 1 9 4 23 4 29 0 8 -5 10
-2 7 8 -4 8 -2 21 3 29 5 8 9 9 9 2 0 -15 42 -4 56 15 13 17 44 25 44 11 0 -9
-16 -13 -35 -9 -5 1 -6 -2 -2 -7 5 -4 13 -9 18 -9 5 -1 13 -2 19 -3 5 0 7 -9
4 -18 -5 -14 -4 -15 4 -4 5 7 9 21 7 30 -1 9 7 22 17 29 16 12 22 12 37 -2 25
-22 48 -22 30 1 -11 13 -8 13 16 -3 16 -10 26 -13 21 -6 -6 11 -1 12 24 8 34
-5 30 9 -4 16 -11 1 -22 10 -24 18 -4 12 -3 13 10 3 8 -7 18 -10 21 -7 7 8 37
-21 37 -35 0 -6 5 -11 11 -11 6 0 9 6 6 13 -3 8 8 12 37 12 22 0 43 3 47 7 3
4 19 4 37 -1 25 -8 32 -7 32 5 0 8 5 14 11 14 5 0 7 4 4 10 -3 6 1 7 10 4 14
-6 14 -8 -2 -20 -15 -11 -12 -11 19 -2 21 6 35 16 32 22 -3 6 1 3 9 -6 18 -22
44 -23 44 -3 0 9 -6 14 -14 11 -7 -3 -13 -1 -13 4 0 20 33 9 56 -17 l23 -27
-5 33 c-5 30 -4 31 15 19 11 -7 22 -17 24 -23 2 -5 2 2 0 17 -5 31 4 51 18 42
6 -4 6 -11 -1 -19 -13 -16 -5 -35 13 -34 9 0 9 2 0 6 -10 3 -10 7 0 18 15 16
28 10 21 -9 -7 -17 34 -32 48 -18 7 7 4 10 -8 9 -10 -1 -20 6 -22 16 -2 11 2
17 15 16 10 0 13 -3 6 -6 -7 -2 -13 -9 -13 -14 0 -11 41 9 52 25 5 8 8 7 8 -1
0 -7 8 -13 18 -14 10 0 12 -3 5 -6 -7 -2 -13 -9 -13 -14 0 -4 7 -6 16 -2 10 4
14 13 10 29 -4 16 -1 26 13 33 16 9 18 7 15 -19 -2 -17 1 -30 7 -30 6 0 8 4 5
9 -3 5 1 14 9 21 8 7 15 9 15 4 0 -5 5 -2 11 6 9 13 10 13 6 -2 -3 -9 3 -24
16 -35 14 -11 17 -12 10 -2 -10 12 -10 18 0 29 10 10 9 11 -3 5 -13 -8 -13 -7
-1 8 16 20 35 23 26 5 -4 -7 2 -2 14 12 18 22 20 23 15 4 -3 -11 1 -26 9 -32
12 -10 14 -9 13 8 0 11 4 19 9 19 6 -1 9 -5 7 -10 -1 -6 7 -5 19 2 15 8 19 8
15 0 -8 -12 -6 -13 42 -17 17 -1 30 2 26 7 -3 5 -1 9 4 9 5 0 13 -9 18 -21 9
-19 11 -20 23 -5 12 14 12 16 -1 11 -10 -4 -17 1 -21 14 -3 14 -1 19 6 14 7
-4 31 -7 54 -8 32 0 39 3 31 13 -14 17 2 15 40 -4 18 -8 32 -20 32 -26 0 -6 3
-8 7 -5 3 4 -4 18 -17 32 -13 14 -19 25 -13 25 6 0 13 -5 15 -10 2 -6 14 -12
28 -15 l25 -4 -25 20 c-14 11 -19 18 -11 17 8 -2 23 -10 33 -18 21 -17 78 -21
75 -6 -1 6 4 10 11 8 6 -1 12 2 12 6 0 5 7 9 14 9 8 0 14 -5 13 -10 -1 -5 3
-11 9 -14 7 -2 10 5 7 22 -4 19 -1 25 11 25 10 0 15 -4 12 -8 -7 -12 37 -9 46
2 9 13 75 18 83 6 6 -9 -7 -14 -27 -11 -5 0 -8 -6 -8 -15 0 -14 2 -15 17 -3
10 8 14 9 10 2 -4 -6 -2 -15 4 -19 7 -4 9 -3 6 2 -3 6 -1 16 4 24 8 13 10 13
19 0 5 -8 10 -10 10 -4 0 6 -9 19 -20 29 -16 14 -17 20 -8 27 18 11 68 10 68
-1 0 -5 -9 -7 -20 -4 -24 6 -28 -22 -4 -31 8 -3 13 -10 10 -15 -3 -5 1 -11 9
-14 10 -4 12 -1 8 10 -5 12 -3 14 8 8 12 -7 12 -6 1 7 -8 10 -9 19 -3 22 5 3
12 0 14 -6 4 -10 8 -10 16 2 5 8 7 18 5 22 -9 13 30 -4 43 -19 6 -8 10 -22 7
-31 -3 -10 1 -7 7 6 7 12 18 22 26 22 7 0 16 6 19 13 3 8 10 14 17 14 7 0 19
2 27 4 8 2 14 -2 12 -8 -1 -7 2 -13 8 -13 5 0 10 5 10 10 0 6 5 10 10 10 6 0
10 -7 10 -15 0 -8 9 -15 21 -15 11 0 17 -4 14 -10 -3 -6 1 -7 9 -4 9 3 16 14
16 23 0 13 -2 13 -9 2 -5 -8 -11 -9 -15 -3 -3 5 1 13 10 16 9 3 12 11 8 18 -6
10 -4 10 8 0 12 -9 22 -10 35 -4 21 11 43 5 43 -10 0 -7 -5 -6 -14 1 -10 9
-15 8 -20 -4 -4 -12 2 -15 29 -15 19 0 35 5 35 11 0 5 -4 8 -9 5 -5 -3 -11 3
-14 14 -3 12 0 20 8 20 7 0 15 -10 18 -21 5 -17 10 -20 29 -14 13 4 37 8 55 9
17 0 29 5 26 10 -4 5 1 7 11 3 9 -4 15 -3 12 1 -2 4 -1 14 5 22 7 12 9 12 9
-4 0 -15 3 -16 15 -6 9 7 18 10 22 6 3 -3 1 -6 -5 -6 -16 0 -5 -23 18 -38 14
-8 21 -9 26 0 4 6 3 8 -3 5 -6 -4 -16 0 -23 8 -11 13 -10 14 2 10 9 -4 22 0
29 7 21 19 39 20 33 3 -4 -8 -2 -15 4 -15 5 0 13 11 16 25 4 15 11 23 17 19 8
-4 7 -9 -2 -15 -12 -8 -11 -11 1 -19 11 -7 17 -4 22 11 5 12 6 24 4 28 -3 4 3
7 13 8 10 1 17 -6 17 -17 0 -10 -6 -16 -13 -13 -7 3 -13 0 -13 -7 0 -6 4 -9 9
-5 5 3 12 1 16 -5 8 -14 35 -13 35 1 0 6 -7 9 -15 5 -12 -4 -13 -2 -6 13 6 10
7 21 4 25 -3 3 -1 6 5 6 7 0 12 -7 12 -15 0 -19 14 -19 30 0 11 13 10 15 -6 9
-14 -4 -15 -3 -5 4 9 6 23 4 43 -6 l31 -15 -29 -12 -29 -12 32 1 c17 1 29 5
25 10 -3 5 9 6 27 3 24 -5 31 -3 28 6 -2 6 -14 11 -27 9 -26 -3 -53 15 -44 30
3 5 12 1 20 -9 7 -10 14 -13 14 -7 0 10 32 10 78 0 13 -3 22 0 22 7 0 7 4 6
10 -3 8 -13 11 -13 22 -1 10 10 10 12 1 7 -7 -4 -13 -2 -13 3 0 6 4 11 9 11
13 0 32 -26 24 -33 -3 -4 -1 -7 5 -7 6 0 14 9 17 20 4 11 10 18 15 15 5 -3 7
-11 4 -19 -3 -7 1 -13 9 -13 9 0 12 7 9 20 -4 16 -1 19 11 14 9 -3 18 -2 21 4
2 5 3 4 1 -3 -1 -7 -7 -12 -13 -11 -6 2 -9 -4 -5 -13 4 -10 9 -12 16 -5 5 5
15 8 21 7 6 -2 7 -1 3 2 -4 2 -3 10 4 18 6 8 16 11 23 7 11 -8 17 -9 37 -12 5
0 7 -6 3 -12 -4 -8 -9 -7 -15 2 -7 11 -9 11 -9 1 0 -7 -5 -10 -12 -6 -7 4 -8
3 -4 -5 4 -6 12 -9 17 -6 5 4 9 1 9 -6 0 -7 6 -4 14 6 8 11 13 33 12 50 -1 26
2 30 26 31 16 1 28 -3 28 -7 0 -5 -3 -8 -7 -8 -22 4 -32 -3 -30 -20 1 -15 4
-17 14 -9 9 7 17 7 27 -1 12 -10 13 -9 9 8 -4 17 -1 19 27 15 25 -4 31 -2 25
8 -3 7 -1 6 7 -3 7 -9 19 -14 26 -11 10 3 8 8 -5 19 -12 10 -9 10 10 -2 16 -9
31 -14 34 -11 4 3 13 0 21 -7 13 -9 14 -9 8 1 -4 6 -2 12 3 12 6 0 11 7 11 15
0 9 6 12 16 8 13 -5 13 -8 2 -15 -9 -7 -8 -8 5 -4 10 3 21 6 23 6 3 0 2 5 -2
12 -5 7 -3 8 5 3 7 -4 11 -15 8 -25 -4 -14 -1 -15 19 -6 18 9 20 12 8 16 -14
5 -14 7 0 19 9 7 16 10 16 5 0 -5 4 -3 9 4 7 11 11 11 24 -2 16 -16 47 -12 47
6 0 5 5 6 10 3 6 -4 8 -10 5 -15 -3 -4 4 -6 16 -3 16 4 17 8 7 14 -7 5 -8 9
-2 9 6 0 14 -3 17 -7 10 -9 57 -10 57 -1 0 4 -4 8 -9 8 -5 0 -12 8 -15 18 -4
10 4 6 19 -11 14 -15 25 -24 25 -19 0 12 42 30 58 25 6 -3 10 -8 8 -12 -3 -4
4 -13 16 -20 11 -7 17 -8 14 -2 -4 5 -2 12 4 16 5 3 10 1 10 -4 0 -6 5 -11 11
-11 8 0 8 5 -1 15 -7 8 -16 12 -21 9 -5 -3 -9 0 -9 5 0 12 1 12 40 16 26 3 52
-22 43 -40 -4 -5 -3 -7 2 -3 4 4 15 0 22 -10 8 -9 6 0 -5 20 -22 39 -18 42 32
22 13 -5 17 -4 12 4 -3 6 -1 14 5 18 7 4 9 3 5 -4 -3 -6 -2 -13 4 -17 5 -3 10
-1 10 5 0 6 14 2 30 -10 17 -12 30 -18 30 -13 0 4 -10 14 -21 22 -18 10 -19
15 -8 22 22 14 29 11 22 -8 -6 -16 -5 -17 12 -3 17 14 18 13 11 -5 -4 -11 -4
-16 0 -12 4 4 13 2 20 -4 10 -8 11 -3 8 23 l-5 33 30 -35 c26 -31 39 -26 18 7
-7 12 17 12 29 0 4 -3 15 -2 26 4 17 9 18 8 9 -10 -8 -15 -8 -22 1 -27 7 -4
10 -3 5 1 -4 5 0 16 9 26 12 13 25 16 47 12 24 -5 29 -3 23 8 -4 8 -1 7 6 -2
8 -11 25 -16 43 -14 16 2 34 1 40 -3 23 -15 34 -11 22 9 -8 13 -13 15 -19 6
-6 -9 -8 -9 -8 1 0 6 -9 12 -20 12 -20 0 -27 14 -11 24 5 3 14 -1 21 -10 11
-12 15 -12 21 -2 7 10 9 10 9 -1 0 -11 3 -11 15 -1 10 9 15 9 15 1 0 -6 -5
-11 -11 -11 -5 0 -7 -5 -3 -11 8 -14 29 5 29 28 0 9 7 18 15 20 13 4 13 3 0
-6 -13 -9 -13 -11 3 -11 9 0 17 -6 17 -14 0 -12 20 -26 36 -26 2 0 2 12 -1 28
-5 24 -4 24 4 5 6 -13 17 -20 28 -18 22 3 45 -14 36 -28 -3 -5 -1 -7 5 -3 7 4
8 17 2 35 -4 17 -4 34 2 42 8 11 9 10 4 -4 -5 -15 -2 -17 17 -12 15 4 18 4 8
-3 -17 -12 -6 -32 17 -32 13 0 14 2 3 9 -20 13 3 23 34 15 16 -4 25 -2 25 6 0
7 -7 10 -15 7 -8 -4 -16 -3 -19 1 -2 4 13 8 35 8 28 1 36 -2 29 -11 -7 -8 -5
-12 5 -12 15 0 19 10 15 37 -1 8 7 4 19 -10 l20 -25 -5 28 c-4 25 -2 28 15 22
11 -3 22 -1 26 5 3 5 11 10 17 10 6 0 -1 -9 -16 -21 -32 -26 -33 -34 -1 -35
14 -1 22 2 19 7 -3 5 2 9 11 9 10 0 13 5 9 13 -4 6 2 4 13 -5 23 -21 41 -24
25 -5 -8 9 -4 12 18 12 15 0 26 -4 23 -8 -3 -5 4 -3 15 4 12 7 19 16 16 20 -2
4 4 9 14 11 12 4 18 -1 18 -13 0 -10 -4 -15 -8 -13 -4 3 -8 0 -8 -5 0 -6 -5
-10 -11 -9 -6 2 -13 -5 -14 -14 -4 -22 -1 -22 18 -4 7 8 25 16 38 18 20 2 24
-1 21 -21 -2 -19 0 -21 11 -12 8 6 18 7 23 3 5 -4 1 2 -8 13 -10 12 -14 26 -9
33 5 9 11 5 19 -13 6 -14 17 -25 24 -25 9 0 9 3 0 12 -18 18 -15 27 8 21 12
-3 22 1 26 11 6 16 24 13 24 -5 0 -6 -4 -8 -9 -5 -5 3 -11 -1 -15 -9 -6 -16 9
-21 18 -6 4 5 17 8 30 7 15 -2 23 1 20 9 -7 18 22 40 32 24 4 -7 3 -9 -4 -5
-6 3 -13 2 -17 -4 -3 -5 -3 -10 2 -11 4 0 16 -2 26 -4 13 -2 17 1 13 11 -3 7
3 18 12 23 15 8 18 5 17 -16 0 -15 7 -28 15 -30 9 -3 11 -1 5 4 -18 15 -15 33
5 33 11 0 20 -7 20 -16 0 -8 4 -13 10 -9 5 3 7 13 4 23 -5 15 -4 16 8 1 7 -9
23 -14 35 -13 12 2 24 0 28 -5 6 -11 55 10 55 23 0 4 -11 1 -25 -8 -14 -9 -25
-12 -25 -7 0 5 5 13 11 16 6 4 8 13 5 21 -8 22 5 17 36 -13 15 -15 28 -21 28
-14 0 7 5 9 13 4 6 -4 20 -9 30 -10 15 -3 16 -1 5 10 -7 7 -22 18 -33 25 -17
9 -14 10 18 5 26 -4 37 -2 37 7 0 10 3 10 15 0 8 -7 15 -9 15 -6 0 4 10 -4 23
-18 l22 -26 25 20 c14 11 19 19 11 18 -7 -2 -16 3 -18 11 -4 9 0 11 16 6 13
-4 28 -1 36 5 12 10 15 10 15 0 0 -7 7 -10 16 -6 14 5 15 4 4 -9 -18 -21 -6
-30 14 -10 9 9 16 12 16 6 0 -6 4 -11 10 -11 5 0 7 7 4 15 -4 8 -3 15 0 15 4
0 11 -12 17 -26 5 -15 12 -25 15 -22 2 3 0 16 -5 29 -7 21 -6 25 10 25 14 0
16 -3 6 -16 -6 -8 -2 -7 10 4 13 10 20 23 17 27 -3 5 0 9 6 9 6 0 8 -10 4 -25
-5 -22 -3 -25 22 -25 23 0 26 -2 14 -11 -12 -9 -12 -10 3 -5 10 3 21 6 24 6 3
0 -5 9 -18 20 -13 10 -18 19 -11 20 6 0 12 -6 12 -12 1 -7 9 -3 19 9 l18 22
22 -23 c12 -12 18 -26 14 -30 -4 -4 1 -4 10 0 10 4 16 13 13 20 -3 8 -1 14 3
14 5 0 12 -6 14 -12 3 -8 6 -6 6 4 1 11 6 15 16 12 8 -4 17 1 21 9 3 9 13 18
21 21 14 6 14 4 2 -11 -12 -15 -12 -16 4 -10 9 3 17 2 17 -3 0 -6 -10 -10 -22
-11 -22 0 -22 -1 -3 -8 11 -5 22 -5 25 0 3 5 18 6 33 3 25 -4 27 -2 18 14 -7
14 -6 19 4 19 8 0 11 -5 8 -11 -3 -6 0 -5 8 3 11 10 11 15 2 18 -18 6 -16 30
1 30 8 0 12 -6 9 -14 -6 -16 19 -17 34 -2 9 9 11 7 7 -8 -6 -24 14 -42 26 -23
12 19 21 17 34 -9 9 -15 16 -20 20 -12 4 6 2 11 -3 11 -20 0 -11 17 17 35 26
18 27 18 10 -1 -13 -16 -14 -21 -3 -31 11 -10 15 -9 20 8 5 15 10 17 20 9 10
-8 15 -8 20 0 4 6 17 10 28 9 36 -2 48 1 42 10 -3 6 3 15 14 21 13 7 22 7 26
0 3 -5 2 -10 -4 -10 -8 0 -8 -8 -2 -39 1 -2 9 3 18 10 9 8 14 9 10 3 -3 -6 0
-11 8 -11 19 0 19 2 -1 21 -14 15 -14 16 0 16 9 0 16 -4 16 -9 0 -14 52 -24
60 -11 8 13 50 22 50 10 0 -4 7 -10 15 -14 8 -3 14 0 12 6 -1 7 4 13 11 14 6
1 13 2 15 4 21 17 73 -2 60 -23 -4 -6 -1 -7 6 -3 7 5 10 14 7 22 -3 8 -1 14 3
14 5 0 18 3 28 7 16 6 16 5 5 -10 -8 -9 -11 -21 -7 -27 3 -5 1 -10 -4 -10 -6
0 -11 -5 -11 -11 0 -7 7 -8 18 -4 9 4 25 8 36 11 29 6 34 17 5 12 -22 -4 -26
-1 -24 16 4 36 5 37 15 31 6 -3 10 -1 10 4 0 6 -5 11 -11 11 -5 0 -7 5 -3 11
4 8 12 2 21 -15 13 -25 15 -25 42 -12 18 10 31 12 38 5 6 -6 14 -5 22 5 13 15
45 11 35 -5 -3 -5 -10 -7 -15 -4 -5 4 -9 1 -9 -5 0 -7 7 -9 16 -6 14 5 15 4 4
-9 -7 -8 -9 -15 -5 -15 4 0 15 10 24 22 21 25 53 34 44 12 -4 -10 0 -12 13 -7
17 6 18 5 4 -13 -8 -10 -10 -16 -6 -12 5 4 15 3 22 -3 10 -8 11 -5 7 12 -5 17
-3 20 8 14 12 -7 12 -6 1 7 -10 12 -10 18 -1 23 6 4 14 3 18 -3 4 -7 12 -8 21
-2 8 6 20 10 25 10 6 0 3 -5 -5 -10 -8 -5 -15 -15 -15 -22 -1 -7 -7 -12 -15
-10 -8 2 -11 0 -7 -4 16 -16 42 -12 65 9 20 18 25 19 33 7 9 -12 10 -12 5 3
-3 9 -1 17 3 17 5 0 11 -6 14 -12 5 -16 37 8 37 27 0 7 7 15 15 19 18 7 20 -5
3 -23 -11 -10 -10 -11 5 -6 13 6 17 1 18 -21 1 -24 2 -25 6 -6 2 12 9 22 14
22 5 0 9 5 9 11 0 5 -4 7 -10 4 -6 -3 -7 1 -3 10 4 12 8 13 13 5 6 -9 9 -9 14
-1 5 8 16 5 36 -9 36 -26 48 -26 25 0 -10 11 -21 17 -25 15 -5 -3 -6 5 -2 17
5 21 5 21 13 1 7 -20 39 -40 39 -25 0 4 24 9 53 10 28 1 47 -2 41 -6 -9 -5 -8
-10 1 -19 11 -10 14 -8 17 10 2 15 9 21 22 19 18 -3 18 -2 2 13 -9 9 -14 21
-11 26 11 17 22 9 33 -23 5 -18 10 -26 11 -18 1 12 10 15 35 12 31 -4 33 -2
31 22 -2 14 1 24 6 20 5 -3 7 -9 4 -14 -3 -4 9 -13 25 -19 18 -6 30 -6 30 0 0
8 -14 13 -31 11 -4 -1 -4 8 -1 20 5 20 5 20 19 2 8 -10 17 -19 21 -19 4 0 7
-5 6 -10 -1 -6 7 -12 17 -12 10 -1 16 3 13 11 -2 7 5 12 17 13 11 1 27 10 35
20 13 17 13 17 14 -1 0 -15 3 -16 15 -6 11 9 15 9 15 1 0 -6 -14 -14 -32 -18
-27 -5 -29 -7 -13 -13 11 -4 26 -3 33 3 9 7 11 5 5 -9 -6 -17 -5 -17 10 -6 9
8 21 11 27 7 5 -3 10 -1 10 5 0 6 5 8 10 5 6 -4 9 -1 8 5 -4 17 24 20 51 5 20
-10 21 -13 7 -18 -9 -4 -16 -1 -16 5 0 6 -3 9 -6 5 -14 -14 7 -27 27 -17 11 6
17 15 14 21 -4 5 1 9 10 9 9 0 14 -4 10 -9 -3 -5 -1 -12 5 -16 6 -4 7 -12 3
-18 -4 -7 1 -5 11 3 16 12 16 15 2 20 -10 3 -12 10 -7 19 8 12 12 12 26 -2 9
-10 21 -15 26 -12 5 4 9 1 9 -4 0 -6 5 -11 11 -11 8 0 7 5 -2 16 -10 13 -10
17 1 24 7 4 10 15 7 25 -4 9 -3 13 2 10 6 -3 9 -19 9 -35 -1 -17 2 -33 5 -37
4 -3 7 2 7 11 0 13 6 17 20 13 13 -3 20 0 20 10 0 12 7 14 27 8 32 -8 43 -22
35 -44 -3 -9 -2 -13 3 -9 4 4 8 17 9 28 0 11 6 19 11 18 6 -2 9 -12 7 -23 -2
-16 0 -17 8 -5 8 13 10 12 10 -2 0 -10 4 -18 8 -18 5 0 8 10 8 23 -1 13 5 22
14 22 8 0 14 -6 12 -13 -1 -8 2 -11 8 -7 6 4 9 13 6 21 -9 22 12 26 26 4 16
-25 32 -27 19 -1 -9 16 -7 18 16 15 15 -1 35 2 45 7 13 7 18 6 18 -2 0 -9 3
-9 14 0 7 6 22 8 31 4 15 -5 17 -3 12 11 -4 9 -3 15 1 12 4 -2 16 3 27 11 19
15 19 15 -8 10 -19 -3 -25 -1 -19 5 12 12 47 7 43 -6 -2 -5 3 -13 11 -18 9 -7
7 -8 -9 -5 -13 3 -26 0 -30 -5 -3 -7 -1 -8 5 -4 7 4 12 3 12 -3 0 -5 -8 -15
-17 -20 -10 -6 -13 -11 -7 -11 6 0 17 7 24 15 7 8 24 15 37 15 20 0 24 4 20
19 -3 12 1 22 10 25 21 9 23 8 17 -9 -4 -10 3 -18 21 -25 40 -15 46 -13 34 16
-5 15 -7 29 -4 32 3 3 5 0 5 -7 0 -8 8 -10 23 -6 18 5 19 4 5 -4 -21 -14 -12
-51 13 -51 13 0 16 5 12 16 -4 11 -8 12 -13 4 -5 -8 -9 -7 -13 3 -6 15 15 18
29 4 4 -4 12 -7 18 -7 6 0 4 4 -4 10 -27 17 0 24 29 7 26 -15 28 -15 28 1 0 9
-5 23 -11 31 -9 11 -8 13 4 9 8 -3 24 -1 35 4 18 8 19 8 3 -5 -19 -15 -20 -74
-1 -74 8 0 9 8 2 24 -6 16 -5 22 4 20 7 -1 11 4 10 11 -2 6 4 12 12 12 8 0 15
5 15 12 0 6 3 8 6 5 4 -4 1 -13 -6 -22 -10 -12 -10 -15 4 -15 9 0 16 7 16 15
0 8 5 15 11 15 5 0 7 -6 3 -12 -6 -10 -4 -10 8 0 8 7 23 9 32 6 11 -4 16 -2
14 7 -2 7 6 13 17 14 11 0 26 4 34 9 11 7 13 5 8 -7 -3 -9 1 -23 9 -32 20 -19
41 -20 25 -1 -9 11 -9 16 0 22 7 4 9 3 6 -3 -4 -6 0 -14 9 -17 12 -4 15 -2 10
9 -3 9 0 15 9 15 8 0 15 -7 15 -15 0 -20 16 -19 24 1 3 8 2 13 -2 10 -5 -3 -9
1 -9 9 0 18 2 18 27 3 16 -11 23 -9 40 10 21 23 36 30 25 12 -3 -5 1 -10 9
-10 9 0 16 -3 16 -8 0 -4 10 -13 23 -21 19 -12 20 -12 11 0 -13 16 -28 57 -18
46 4 -4 13 -2 20 4 10 8 12 6 10 -8 -2 -10 3 -27 11 -38 14 -19 14 -18 8 8 -6
22 -4 26 9 21 11 -4 16 -1 16 11 0 15 6 13 37 -11 20 -15 33 -23 29 -16 -10
17 28 34 44 19 9 -9 11 -9 6 0 -3 7 2 14 14 18 11 3 19 12 17 18 -1 7 6 11 17
9 12 -2 16 1 10 10 -4 7 -4 10 1 6 4 -4 14 0 21 10 12 16 13 15 11 -5 -1 -13
-7 -23 -15 -23 -7 0 -10 -5 -6 -12 4 -7 3 -8 -4 -4 -7 4 -12 2 -12 -3 0 -6 -3
-10 -8 -10 -21 4 -31 -3 -29 -22 1 -16 3 -18 12 -6 5 7 16 12 23 10 6 -3 12 1
12 7 0 10 4 9 15 0 9 -7 26 -14 38 -15 17 -2 23 3 25 18 1 17 -1 19 -8 7 -9
-13 -11 -13 -20 0 -15 23 -12 30 13 27 14 -1 21 3 19 11 -1 8 2 11 8 7 6 -3 8
-11 5 -16 -4 -5 2 -10 12 -10 30 -2 48 2 55 14 6 9 8 9 8 0 0 -7 7 -10 15 -6
9 3 22 -2 30 -13 13 -18 14 -18 15 -1 0 9 -4 17 -8 17 -5 0 -9 7 -9 14 0 11 5
12 17 6 11 -6 22 -5 31 3 7 7 5 1 -6 -12 -21 -26 -6 -21 28 8 17 15 18 14 12
-12 -6 -23 -5 -26 11 -20 11 4 13 8 6 11 -9 3 -9 9 -1 23 10 20 29 17 29 -4 0
-7 -4 -6 -11 3 -9 13 -10 13 -6 0 2 -8 16 -16 31 -18 19 -2 26 0 21 7 -3 6
-11 8 -17 5 -7 -4 -8 -2 -4 5 4 6 11 9 16 6 4 -3 11 1 14 7 3 7 4 4 3 -6 -1
-10 4 -21 12 -24 10 -3 12 2 7 22 -4 16 -2 26 4 26 6 0 8 -4 5 -10 -3 -5 -1
-10 4 -10 6 0 11 5 11 12 0 6 9 3 20 -7 22 -20 19 -35 -4 -16 -10 8 -16 9 -21
1 -3 -5 1 -10 9 -10 8 0 14 -6 12 -12 -1 -7 -1 -10 1 -5 3 4 9 5 14 1 5 -3 9
0 9 6 0 6 6 8 12 4 7 -4 2 5 -11 19 -14 15 -21 30 -17 34 4 5 18 -4 30 -19 24
-31 46 -37 46 -13 0 8 7 15 16 15 8 0 12 -5 8 -11 -4 -7 1 -9 12 -7 12 2 18
11 16 23 -2 17 -1 17 7 5 13 -18 14 -43 3 -36 -4 2 -14 1 -21 -3 -9 -6 -10
-11 -2 -15 6 -4 11 -2 11 3 0 6 3 10 8 9 4 -2 18 6 32 16 14 10 18 16 9 13 -9
-3 -16 1 -16 9 0 17 0 17 32 2 22 -10 28 -9 36 3 7 11 9 9 9 -8 0 -28 20 -40
32 -19 5 9 13 14 19 11 19 -12 49 -13 55 -3 4 7 2 8 -4 4 -8 -5 -12 1 -12 16
0 17 3 19 9 9 5 -7 14 -10 20 -6 8 5 10 -1 6 -18 -4 -14 -2 -28 4 -31 6 -4 9
-1 5 7 -3 8 0 18 7 23 8 5 10 3 5 -7 -4 -8 0 -5 8 5 16 19 16 19 30 1 8 -11
12 -26 9 -35 -4 -13 -3 -13 5 0 6 8 9 17 6 21 -9 15 14 18 26 4 14 -17 60 -20
60 -4 0 5 -4 8 -9 4 -5 -3 -12 -1 -16 5 -3 5 1 10 9 10 8 0 18 -5 22 -11 4 -8
11 -4 19 11 7 13 15 18 19 12 3 -6 23 -8 42 -6 23 3 46 -1 61 -11 13 -9 30
-14 36 -11 7 2 5 5 -4 5 -9 1 -23 8 -30 18 -13 15 -12 15 9 4 12 -6 22 -8 21
-4 -4 23 3 25 17 5 8 -12 12 -28 9 -35 -4 -6 1 -3 9 7 12 15 13 23 4 33 -9 11
-7 12 8 6 17 -6 17 -5 5 10 -12 15 -12 17 3 11 15 -6 20 -17 17 -36 0 -5 13
-8 29 -8 17 0 30 -4 30 -10 0 -5 7 -7 15 -4 8 4 12 11 9 16 -4 6 -1 9 5 7 7
-3 12 -8 11 -12 -1 -9 44 -47 56 -47 5 0 -1 7 -13 15 -12 8 -20 23 -18 32 2
10 4 20 4 23 1 3 6 -2 11 -10 8 -13 10 -13 10 1 0 9 7 22 16 29 12 11 15 11
12 -1 -2 -8 -7 -18 -13 -22 -5 -5 0 -5 13 -2 25 7 27 3 11 -28 -10 -21 -10
-21 5 -3 9 11 16 14 16 8 0 -7 5 -12 11 -12 6 0 9 9 6 19 -7 29 21 17 73 -31
17 -15 20 -16 28 -2 5 8 21 16 36 18 15 1 31 7 37 13 13 13 88 0 101 -18 8
-11 9 -10 5 3 -3 9 1 19 9 22 24 9 31 7 14 -5 -13 -9 -13 -10 0 -6 8 2 16 13
18 25 2 12 7 22 12 22 4 0 6 -8 3 -19 -3 -10 1 -22 8 -26 8 -6 10 -4 4 5 -5 8
-3 11 6 8 8 -3 12 -14 11 -24 -2 -10 0 -16 4 -11 4 4 8 15 9 25 0 9 5 19 10
20 6 2 18 8 28 13 12 7 17 6 17 -2 0 -7 3 -9 7 -6 3 4 12 -1 19 -11 11 -14 12
-12 5 19 -6 25 -5 36 4 36 7 0 10 -10 7 -25 -4 -21 -2 -23 19 -18 23 7 23 6 5
-8 -26 -21 -7 -21 22 0 12 8 20 19 17 24 -3 5 -2 11 3 14 4 2 8 -6 8 -19 0
-13 -4 -21 -10 -18 -5 3 -6 1 -2 -5 3 -6 -2 -12 -11 -14 -15 -3 -14 -5 5 -10
12 -3 20 -3 17 2 -2 4 5 16 17 26 14 12 18 14 13 4 -6 -10 -2 -9 12 3 19 16
21 16 27 1 4 -9 12 -14 22 -10 10 4 13 2 8 -6 -5 -8 -2 -9 9 -5 10 3 17 2 17
-4 0 -6 5 -7 12 -3 7 5 9 2 6 -8 -4 -8 -1 -15 7 -15 10 0 11 7 4 25 -8 21 -7
24 9 20 12 -3 23 2 30 13 12 18 13 18 44 -1 30 -18 32 -18 46 -2 7 9 11 11 7
4 -3 -6 1 -19 9 -28 9 -8 16 -12 16 -8 0 5 5 3 12 -4 7 -7 19 -12 27 -12 8 0
11 3 7 7 -4 5 -12 8 -17 8 -5 0 -9 3 -9 8 0 4 0 14 0 22 0 8 6 14 12 12 10 -1
14 222 16 1086 l2 1087 -9600 0 -9600 0 0 -2249z"/>
<path d="M19166 7399 c3 -6 -9 -9 -28 -7 -18 1 -44 -6 -58 -15 -14 -9 -28 -16
-32 -17 -5 0 -9 0 -10 -1 -2 -1 -16 -2 -33 -4 -16 -2 -57 -10 -90 -18 -33 -9
-63 -13 -67 -11 -5 3 -8 0 -8 -7 0 -7 -8 -9 -21 -6 -12 3 -29 2 -38 -3 -27
-13 -122 -27 -168 -24 -24 1 -43 -1 -43 -5 0 -4 -12 -6 -27 -5 -26 1 -182 -16
-278 -31 -54 -9 -78 -11 -165 -20 -41 -4 -88 -9 -105 -11 -16 -2 -73 -6 -125
-9 -124 -6 -213 -14 -275 -26 -79 -15 -111 -19 -265 -35 -79 -8 -174 -19 -210
-25 -36 -6 -99 -14 -140 -19 -41 -5 -86 -12 -100 -15 -14 -4 -36 -8 -50 -10
-14 -2 -50 -13 -80 -24 -30 -10 -71 -22 -90 -25 -19 -3 -46 -8 -60 -10 -52
-10 -157 -28 -210 -37 -30 -5 -68 -11 -85 -14 -16 -3 -36 -6 -42 -7 -7 -1 -13
-6 -13 -11 0 -5 -6 -7 -14 -4 -8 3 -43 -1 -78 -9 -34 -9 -88 -20 -118 -24
-221 -35 -332 -52 -379 -56 -30 -2 -57 -7 -61 -9 -4 -3 -41 -10 -81 -16 -68
-10 -89 -13 -144 -23 -11 -2 -31 -6 -45 -10 -14 -3 -41 -8 -60 -11 -30 -4 -69
-12 -210 -41 -14 -2 -86 -16 -160 -29 -74 -13 -153 -29 -175 -35 -22 -6 -85
-11 -140 -11 l-100 -2 110 -13 c61 -7 191 -23 290 -34 477 -56 774 -93 915
-115 154 -24 550 -98 602 -112 15 -5 -121 -7 -303 -5 -181 2 -335 5 -342 7
-53 17 -502 92 -603 102 -35 3 -64 10 -64 14 0 16 -47 9 -104 -16 -35 -16 -55
-20 -53 -12 1 6 -4 11 -12 9 -8 -2 -11 3 -8 13 4 8 3 15 -1 16 -4 0 -17 2 -29
5 -35 6 -37 6 -50 5 -7 0 -13 -5 -13 -10 0 -5 10 -7 23 -4 12 3 18 2 14 -2
-14 -16 -37 -13 -47 5 -7 14 -20 17 -67 15 -32 -2 -64 1 -70 7 -9 8 -13 7 -13
-3 0 -11 -2 -11 -10 1 -8 13 -10 13 -10 -1 0 -9 -7 -22 -15 -29 -11 -9 -15 -9
-15 -1 0 7 -5 9 -10 6 -6 -3 -18 1 -27 10 -12 13 -18 14 -24 4 -4 -7 -5 -19
-2 -27 5 -12 3 -12 -15 -1 -19 12 -20 15 -6 30 10 12 12 19 4 24 -6 4 -9 1 -8
-7 2 -7 -3 -12 -9 -11 -7 2 -13 -4 -13 -12 0 -8 -5 -15 -11 -15 -5 0 -8 4 -4
9 11 19 -17 23 -31 5 -9 -11 -12 -12 -8 -4 6 12 4 13 -7 3 -15 -15 -33 -17
-24 -3 7 11 -16 50 -29 50 -6 0 -5 -5 2 -12 17 -17 15 -35 -4 -42 -13 -5 -15
-2 -11 13 3 14 -1 21 -16 25 -12 3 -23 3 -26 1 -2 -3 1 -5 7 -5 7 0 12 -5 12
-10 0 -6 -11 -8 -26 -4 -21 6 -25 4 -19 -7 6 -11 5 -12 -6 -1 -19 17 -29 15
-22 -5 7 -17 5 -17 -20 0 -27 17 -47 16 -47 -4 0 -6 5 -7 10 -4 6 3 10 1 10
-4 0 -13 -10 -14 -28 -2 -10 6 -4 16 23 40 21 18 36 34 34 35 -6 5 -417 44
-639 61 -608 46 -1156 68 -1260 51 -14 -2 -83 -7 -155 -11 -91 -4 -188 -18
-325 -46 -107 -22 -292 -60 -410 -84 -179 -37 -259 -48 -480 -65 -679 -53
-738 -61 -944 -122 l-70 -21 210 -70 209 -70 277 33 c152 18 282 30 289 28 10
-3 -319 -51 -453 -65 -27 -3 -48 -9 -48 -14 0 -15 68 -27 107 -19 21 4 65 11
98 14 l60 5 -50 -15 c-27 -8 -67 -15 -87 -15 -21 0 -38 -2 -38 -3 0 -2 21 -11
48 -21 26 -10 70 -28 97 -40 28 -13 102 -31 165 -40 63 -10 132 -27 153 -37
60 -30 367 -129 427 -138 30 -5 143 -27 250 -49 207 -43 220 -45 220 -33 0 6
-19 15 -125 55 l-40 15 30 12 c49 19 277 76 485 120 107 23 229 53 270 67 41
14 134 35 205 47 136 23 171 23 445 -3 68 -7 128 -5 210 4 63 8 232 18 375 24
373 16 475 23 470 31 -3 4 -37 10 -77 13 -115 10 -182 23 -222 44 l-37 19 63
-3 c35 -1 173 -5 308 -8 135 -2 261 -7 280 -10 28 -4 31 -3 15 5 -22 11 96 7
344 -11 186 -14 213 -24 91 -33 -106 -8 -108 -8 -380 -36 -221 -23 -267 -28
-615 -70 -333 -41 -919 -142 -1645 -285 l-325 -63 -362 -5 c-200 -3 -363 -2
-363 2 0 3 -27 19 -60 34 -56 27 -160 43 -160 26 0 -4 -16 -5 -35 -2 -29 5
-35 3 -35 -13 0 -14 -3 -15 -12 -6 -17 17 -28 15 -28 -4 0 -11 -6 -14 -20 -10
-11 3 -29 9 -40 12 -16 4 -19 2 -14 -13 5 -17 5 -17 -8 -1 -13 15 -15 15 -27
-3 -9 -16 -20 -19 -45 -16 -33 4 -55 -10 -69 -44 -4 -11 -6 -10 -6 2 -1 17
-56 25 -66 9 -3 -5 -11 -7 -18 -4 -7 2 -25 -8 -40 -22 -16 -14 -28 -20 -26
-13 3 28 -1 39 -16 39 -8 0 -15 -5 -15 -11 0 -5 5 -7 10 -4 20 13 9 -11 -14
-27 -13 -10 -28 -13 -36 -8 -8 5 -26 1 -45 -10 -32 -18 -33 -18 -54 3 -18 19
-21 19 -21 4 0 -9 -4 -17 -10 -17 -5 0 -10 4 -10 9 0 6 -9 9 -20 8 -23 -1 -25
-8 -8 -25 6 -6 9 -14 5 -18 -3 -3 -17 6 -31 21 l-26 28 0 -33 c0 -18 -3 -30
-7 -27 -3 4 -12 2 -20 -5 -11 -8 -18 -6 -34 10 -11 12 -16 22 -12 22 12 0 -20
20 -32 20 -5 0 -3 -4 5 -10 12 -8 12 -10 -4 -16 -13 -5 -15 -9 -5 -15 16 -9
12 -14 -19 -24 -22 -6 -23 -5 -17 16 7 21 6 22 -8 10 -9 -7 -24 -10 -33 -7
-11 4 -15 2 -11 -8 4 -9 -2 -17 -13 -21 -26 -8 -43 3 -37 25 3 13 0 17 -9 13
-8 -3 -15 -19 -15 -37 -1 -17 -3 -23 -6 -13 -5 18 -15 22 -26 10 -4 -3 -22 -7
-41 -8 -20 0 -44 -9 -54 -18 -10 -9 -26 -17 -35 -17 -8 0 -29 -12 -46 -26 -17
-14 -31 -23 -31 -20 0 7 129 110 215 171 57 41 85 52 227 91 200 55 487 125
630 155 59 12 105 26 103 29 -10 16 -404 -74 -774 -176 -123 -33 -130 -34
-261 -28 -74 3 -146 7 -160 10 -18 3 -21 2 -10 -5 8 -5 72 -12 143 -16 70 -4
127 -10 127 -14 0 -3 -31 -26 -68 -51 -57 -38 -229 -170 -284 -217 -15 -13
-16 -12 -14 12 l3 26 -25 -23 -24 -23 6 23 c8 23 -7 31 -20 11 -5 -8 -10 -6
-16 5 -8 14 -13 15 -24 5 -17 -14 -19 -39 -2 -39 6 0 8 -3 5 -6 -3 -4 -22 1
-41 10 -19 9 -39 16 -44 16 -20 0 -22 -18 -5 -35 15 -16 15 -17 -3 -15 -33 4
-45 0 -39 -10 3 -5 1 -10 -5 -10 -7 0 -9 8 -5 19 3 12 0 21 -10 25 -11 4 -15
-2 -16 -27 -1 -18 -1 -35 0 -39 0 -4 -7 -4 -16 -1 -11 4 -13 8 -5 11 25 8 11
21 -18 16 -19 -4 -36 -1 -47 7 -15 13 -15 12 -3 -7 11 -18 10 -24 -9 -43 -26
-26 -20 -25 -56 -11 -45 18 -75 22 -75 10 0 -5 -5 -10 -11 -10 -6 0 -9 7 -5
15 7 18 -5 20 -22 3 -16 -16 -15 -31 1 -22 8 5 7 2 -2 -10 -10 -12 -16 -13
-21 -6 -5 8 -9 7 -13 -3 -3 -9 2 -17 14 -20 10 -3 19 -1 19 5 0 5 5 6 10 3 16
-10 0 -27 -20 -22 -11 3 -21 -2 -24 -10 -3 -8 -10 -11 -16 -8 -5 3 -7 0 -4 -9
3 -8 12 -12 20 -9 8 3 11 9 8 14 -9 15 13 10 26 -6 7 -8 21 -15 32 -15 10 0
17 -4 13 -10 -3 -5 -13 -6 -22 -3 -13 5 -15 2 -10 -11 4 -11 3 -15 -4 -10 -7
4 -9 -4 -6 -25 4 -24 0 -35 -16 -46 -30 -21 -8 -19 28 3 17 10 44 22 60 26 17
4 -26 -24 -95 -62 -255 -140 -437 -261 -515 -341 -21 -23 -42 -41 -45 -41 -4
0 -22 21 -40 48 -57 81 -78 100 -108 95 -15 -2 -43 -5 -62 -8 -19 -2 -35 -4
-35 -5 0 -1 -18 -3 -41 -4 -23 -1 -54 -12 -72 -25 -18 -12 -32 -18 -32 -12 0
6 -6 11 -14 11 -8 0 -16 6 -19 13 -8 21 -57 -97 -73 -175 -16 -80 -32 -120
-46 -112 -4 3 -8 0 -8 -6 0 -14 -25 -8 -26 6 0 5 -7 25 -16 44 -8 19 -21 53
-28 75 -7 22 -15 43 -19 47 -3 3 -37 0 -74 -9 -37 -8 -71 -13 -74 -10 -7 7 39
88 79 139 27 35 29 41 18 72 -6 19 -22 52 -36 72 -30 43 -38 29 106 178 52 55
88 95 80 90 -88 -59 -447 -380 -590 -528 -24 -25 -49 -46 -54 -46 -6 0 5 13
24 29 32 26 34 32 22 51 -7 11 -10 25 -7 30 4 6 2 10 -3 10 -6 0 -28 36 -51
79 l-41 79 33 34 c17 18 82 94 143 168 307 372 677 696 936 820 100 48 229 83
278 75 30 -4 38 -1 54 21 19 26 19 27 1 40 -32 23 -129 17 -203 -12 -175 -71
-406 -238 -657 -475 -60 -57 -86 -78 -56 -46 29 32 50 61 47 65 -8 7 -75 4
-88 -4 -5 -3 -60 -8 -121 -10 -62 -2 -129 -5 -150 -8 -22 -3 -37 -1 -37 6 0 5
-7 7 -16 4 -10 -4 -18 0 -21 13 -3 13 -20 23 -49 30 -24 6 -78 27 -119 46 -86
41 -118 43 -230 15 -179 -43 -258 -81 -278 -133 -3 -9 -22 -19 -42 -23 -20 -3
-41 -11 -48 -18 -28 -26 -87 -66 -97 -66 -6 0 -21 -5 -33 -12 -12 -6 -29 -13
-37 -14 -8 -1 -28 -6 -45 -11 -16 -5 -37 -8 -45 -8 -8 1 -25 3 -37 3 -13 1
-23 8 -23 16 0 28 -105 29 -172 2 -18 -8 -52 -17 -75 -21 -29 -4 -48 -15 -64
-36 -12 -16 -26 -29 -31 -29 -5 0 -25 -7 -46 -17 -20 -9 -40 -15 -44 -15 -5 1
-8 -4 -8 -12 0 -18 -127 -41 -172 -30 -58 13 -120 3 -179 -27 -31 -17 -86 -35
-122 -40 -56 -9 -69 -8 -91 6 -22 15 -32 15 -76 5 -58 -14 -75 -30 -31 -30 29
0 46 -19 19 -20 -7 -1 -51 -9 -98 -19 l-85 -19 43 -7 c47 -8 44 -27 -5 -32
-16 -1 -46 -7 -68 -12 -22 -6 -75 -11 -117 -11 -69 0 -77 2 -83 21 -4 11 -4
24 0 27 4 4 49 7 100 7 51 0 97 3 101 8 4 4 2 7 -4 7 -18 0 -53 38 -42 45 18
11 10 25 -14 25 -13 0 -26 6 -29 14 -4 9 -14 13 -29 9 -18 -4 -20 -3 -8 6 21
15 41 13 55 -5 11 -15 14 -15 41 -1 27 15 28 16 6 17 -13 0 -32 5 -43 11 -15
7 -39 6 -92 -8 -64 -16 -69 -18 -42 -24 37 -8 33 -11 -27 -14 -29 -1 -45 1
-42 7 4 6 -15 9 -50 6 -38 -2 -57 1 -61 10 -2 6 -13 12 -23 12 -10 0 -34 7
-52 17 -30 14 -46 15 -151 4 -65 -7 -171 -25 -236 -42 -90 -23 -157 -32 -283
-40 -197 -12 -230 -19 -278 -65 -32 -30 -35 -37 -24 -54 17 -27 17 -27 -28
-35 -22 -4 -44 -14 -50 -23 -6 -11 -13 -13 -17 -7 -5 6 -37 10 -71 10 -46 0
-67 5 -75 16 -19 25 -59 30 -133 16 -62 -12 -169 -19 -320 -21 -35 -1 -56 4
-68 16 -15 16 -20 16 -45 3 -15 -7 -36 -25 -45 -39 -15 -24 -15 -27 4 -46 11
-11 20 -25 20 -31 0 -6 7 -9 14 -6 10 4 13 1 9 -9 -3 -7 -12 -14 -20 -14 -8 0
-12 -4 -8 -9 3 -5 1 -12 -5 -16 -5 -3 -10 -1 -10 5 0 6 -5 8 -10 5 -6 -4 -8
-11 -5 -16 4 -5 1 -9 -6 -9 -6 0 -17 -8 -24 -17 -11 -15 -15 -16 -31 -3 -11 9
-15 10 -10 3 7 -12 -10 -18 -42 -14 -6 1 -12 -4 -12 -11 0 -8 -5 -6 -11 5 -5
9 -8 21 -5 25 3 5 -1 9 -9 9 -9 0 -15 -10 -15 -24 0 -24 0 -24 -24 -6 -21 16
-22 19 -8 25 10 4 13 7 7 8 -5 1 -18 3 -28 5 -11 2 -17 -2 -15 -12 2 -9 -3
-18 -10 -20 -7 -3 -11 1 -10 7 3 14 -15 20 -87 26 -29 3 -53 11 -58 20 -4 8
-19 14 -32 14 -18 0 -25 5 -25 20 0 13 -7 20 -19 20 -13 0 -24 11 -32 35 -11
28 -18 35 -40 35 -15 0 -34 6 -41 14 -19 19 -76 9 -83 -15 -4 -10 -3 -28 0
-39 4 -14 1 -22 -10 -26 -9 -4 -14 -13 -10 -22 3 -8 -2 -23 -11 -33 -16 -17
-16 -19 -1 -19 10 0 14 -5 11 -15 -5 -11 0 -12 26 -5 17 5 39 6 48 2 18 -7 11
-9 -112 -31 -61 -11 -86 -24 -86 -47 0 -8 -7 -14 -16 -14 -13 0 -14 -3 -5 -14
17 -20 4 -43 -32 -56 -25 -8 -29 -13 -18 -20 8 -4 16 -16 17 -24 1 -9 -1 -14
-6 -11 -12 8 -22 -27 -10 -39 7 -7 10 -6 10 4 0 7 3 11 6 7 3 -3 -1 -15 -9
-27 l-15 -22 -7 21 c-3 12 -11 21 -17 21 -6 0 -8 -3 -5 -7 4 -3 1 -13 -6 -21
-10 -13 -9 -15 8 -8 19 7 19 6 3 -11 -17 -16 -18 -16 -32 2 -11 15 -17 17 -28
7 -8 -6 -18 -8 -22 -4 -4 4 -13 7 -18 7 -6 0 -13 7 -15 15 -4 13 -3 13 6 0 6
-8 11 -10 11 -4 0 19 -12 24 -33 13 -21 -12 -62 3 -83 30 -6 8 -18 12 -27 8
-9 -3 -18 -1 -21 6 -3 8 -7 9 -13 2 -4 -5 -19 -10 -33 -10 -14 0 -33 -6 -42
-14 -10 -8 -18 -11 -18 -7 0 4 -11 -4 -25 -18 -16 -16 -23 -31 -19 -43 6 -16
5 -16 -8 1 -11 13 -17 16 -22 7 -4 -6 -12 -8 -18 -5 -7 5 -9 -2 -5 -18 7 -25
6 -26 -31 -17 -20 5 -56 11 -80 14 -24 3 -54 12 -68 21 -16 11 -24 12 -24 4 0
-7 -8 -9 -20 -5 -14 4 -18 2 -15 -7 2 -7 -5 -24 -17 -38 -14 -16 -22 -21 -25
-12 -8 22 -20 13 -27 -19 -4 -22 -10 -30 -21 -25 -18 6 -20 -5 -3 -22 6 -6 12
-22 14 -36 2 -22 -4 -26 -61 -42 -35 -10 -59 -21 -53 -25 7 -4 7 -9 -1 -13
-19 -12 -13 -46 8 -46 17 0 16 -4 -10 -29 -31 -31 -40 -64 -14 -55 10 4 15 0
15 -14 0 -11 7 -22 15 -26 13 -5 13 -8 -2 -25 -9 -11 -20 -18 -25 -15 -4 3 -8
1 -8 -4 0 -5 -14 -12 -31 -16 -17 -3 -28 -10 -25 -15 3 -5 14 -7 25 -4 11 3
21 -2 24 -11 4 -10 1 -13 -9 -9 -7 3 -14 1 -14 -5 0 -6 -19 -13 -42 -17 -53
-8 -111 -25 -105 -31 4 -4 359 40 420 52 19 4 25 9 19 17 -13 17 -13 58 -1 88
8 20 22 30 54 39 24 7 48 9 53 6 11 -7 9 -97 -3 -116 -6 -10 2 -11 36 -7 24 4
73 9 109 12 103 9 523 62 880 110 183 25 862 103 1575 180 556 60 829 91 1005
115 80 11 309 38 510 60 201 22 421 47 490 55 171 21 633 73 700 80 86 8 129
14 210 27 74 13 76 14 145 84 69 69 115 99 172 110 28 6 30 4 77 -103 62 -139
92 -186 114 -179 9 3 -17 -27 -59 -68 -74 -71 -173 -146 -194 -146 -6 0 -19
18 -28 39 -10 21 -25 41 -35 43 -10 3 -24 23 -32 47 -7 23 -28 58 -46 79 -30
35 -34 36 -49 20 -22 -20 -34 -83 -35 -174 0 -57 -3 -73 -16 -78 -14 -6 -15
-4 -4 10 12 13 11 17 -1 25 -19 12 -39 11 -39 -1 0 -5 8 -10 18 -11 11 0 12
-2 4 -6 -7 -3 -19 1 -27 7 -8 7 -22 9 -32 5 -24 -10 -73 -12 -73 -2 0 4 -7 7
-15 7 -8 0 -13 -6 -11 -12 1 -7 1 -10 -1 -5 -7 11 -31 8 -37 -5 -5 -10 -7 -10
-12 0 -3 6 -13 12 -22 12 -14 0 -14 -2 -3 -9 9 -6 1 -8 -25 -7 -22 1 -45 5
-52 10 -7 4 -19 2 -27 -4 -8 -7 -20 -10 -27 -7 -7 2 -26 0 -43 -5 -16 -5 -113
-12 -215 -15 -102 -3 -186 -7 -188 -8 -2 -2 1 -12 7 -24 12 -21 -2 -40 -15
-20 -4 8 -9 7 -15 -2 -8 -12 -11 -11 -19 1 -8 12 -10 11 -10 -7 0 -25 -33 -33
-46 -11 -5 8 -2 9 9 5 12 -4 17 -1 17 9 0 13 -6 15 -27 9 -15 -3 -32 -12 -37
-19 -14 -17 -44 -27 -50 -17 -7 10 -56 2 -74 -12 -9 -7 -11 -6 -6 6 5 14 2 14
-19 4 -14 -6 -23 -15 -21 -19 3 -5 -7 -3 -22 2 -22 9 -25 8 -20 -5 3 -10 2
-13 -5 -10 -5 4 -17 1 -25 -6 -12 -10 -13 -9 -8 6 5 12 4 16 -3 12 -6 -4 -14
-1 -16 5 -3 8 -6 6 -6 -4 -1 -22 -41 -25 -41 -3 0 12 -5 10 -20 -5 -15 -15
-30 -19 -55 -17 -19 2 -37 2 -40 -1 -3 -3 -27 -5 -54 -5 -42 1 -49 -1 -45 -15
5 -15 4 -15 -5 -1 -11 17 -71 24 -71 8 0 -6 -7 -6 -19 1 -13 7 -28 7 -45 0
-14 -5 -33 -7 -41 -4 -8 4 -21 1 -29 -5 -10 -8 -23 -7 -52 5 -36 15 -37 15
-24 -2 11 -13 12 -18 3 -21 -7 -2 -9 -11 -6 -19 3 -8 0 -14 -7 -14 -8 0 -10 9
-6 24 3 14 2 28 -4 31 -6 3 -10 -4 -11 -17 0 -15 -3 -18 -6 -8 -4 8 -12 20
-19 27 -10 11 -15 9 -27 -7 -7 -11 -16 -18 -19 -15 -3 3 -4 -8 -3 -23 1 -15
-5 -34 -13 -41 -12 -12 -13 -11 -8 5 7 24 -24 47 -45 33 -22 -13 -51 -11 -43
4 4 6 -2 3 -14 -7 -18 -15 -20 -22 -10 -34 7 -8 -5 -3 -26 12 -42 28 -78 37
-54 13 7 -7 22 -18 33 -25 17 -9 14 -11 -22 -9 -31 2 -43 -1 -43 -11 0 -8 6
-12 15 -8 8 3 15 0 15 -7 0 -8 4 -7 10 3 5 8 12 12 15 9 10 -11 14 -49 4 -49
-5 0 -9 4 -9 10 0 5 -3 9 -7 9 -5 -1 -10 0 -13 1 -17 8 -80 7 -80 -1 0 -5 5
-9 12 -9 9 0 9 -3 1 -11 -9 -9 -16 -8 -28 5 -20 19 -35 21 -35 4 0 -9 -3 -10
-8 -2 -7 12 -47 12 -58 1 -4 -4 1 -7 12 -7 15 0 16 -2 4 -9 -8 -6 -18 -7 -24
-4 -5 3 -6 1 -2 -5 3 -6 2 -13 -4 -17 -12 -8 -13 1 -1 42 7 26 7 31 -5 26 -8
-3 -12 -9 -9 -13 3 -4 -2 -11 -11 -14 -8 -3 -12 -2 -9 4 3 6 1 10 -4 10 -6 0
-11 -4 -11 -9 0 -5 -9 -11 -21 -14 -12 -3 -19 -10 -16 -14 3 -5 -5 -10 -19
-11 -13 -1 -24 3 -24 8 0 5 7 7 15 4 8 -4 17 1 21 10 3 9 14 16 23 17 12 0 11
2 -4 8 -12 5 -23 4 -27 -3 -5 -8 -13 -7 -29 2 -18 12 -23 12 -30 0 -5 -7 -7
-19 -4 -26 3 -8 0 -12 -7 -10 -14 5 -37 -34 -39 -66 -1 -15 -3 -16 -6 -4 -5
21 -33 32 -47 18 -7 -7 -4 -10 9 -11 15 0 16 -2 5 -6 -8 -3 -19 -11 -23 -17
-6 -7 -7 -4 -3 7 3 9 1 17 -4 17 -6 0 -10 7 -10 15 0 8 5 15 10 15 6 0 10 5
10 12 0 6 -8 4 -19 -6 -10 -9 -25 -14 -35 -10 -9 3 -16 1 -16 -5 0 -6 10 -12
23 -12 20 -1 20 -2 2 -6 -11 -3 -23 -10 -27 -16 -4 -7 -12 -4 -23 6 -21 21
-31 21 -39 1 -3 -9 -13 -14 -21 -11 -9 4 -12 1 -8 -9 3 -8 -1 -14 -11 -14 -9
0 -16 8 -16 20 0 11 -5 20 -11 20 -6 0 -9 -7 -5 -15 3 -8 1 -15 -5 -15 -6 0
-7 -4 -4 -10 4 -6 -5 -10 -20 -10 -24 0 -25 1 -11 16 22 22 20 24 -14 11 -22
-8 -41 -8 -79 2 -50 13 -96 8 -86 -10 4 -5 13 -9 21 -9 8 0 12 5 9 10 -3 6 -2
10 4 10 16 0 20 -14 6 -27 -7 -6 -18 -7 -25 -3 -7 5 -19 6 -27 3 -8 -3 -23 3
-33 12 -12 11 -20 13 -20 6 0 -6 7 -14 15 -17 20 -8 19 -24 -1 -24 -8 0 -13
-4 -9 -9 3 -6 -13 -9 -37 -8 -28 1 -42 -2 -41 -9 2 -8 -6 -10 -20 -6 -20 5
-20 4 -8 -11 9 -11 10 -17 2 -17 -6 0 -11 5 -11 10 0 6 -12 15 -26 20 -15 6
-22 14 -18 22 4 7 3 8 -4 4 -7 -4 -12 -1 -12 6 -1 8 -9 4 -19 -9 -22 -26 -36
-30 -27 -8 7 20 -32 41 -47 26 -8 -8 -8 -11 1 -11 7 0 12 -4 12 -9 0 -5 -9 -7
-20 -4 -11 3 -20 10 -20 15 0 5 -3 7 -7 5 -5 -3 -32 -1 -61 3 -29 3 -55 3 -58
-2 -3 -4 -15 -8 -27 -7 l-22 0 22 9 c34 14 28 20 -9 9 -41 -11 -41 -11 -32 2
4 7 1 10 -7 7 -8 -3 -22 -1 -31 4 -12 5 -18 5 -18 -1 0 -7 -24 -9 -62 -6 -50
3 -42 0 42 -15 275 -49 423 -100 567 -196 209 -139 374 -368 431 -599 50 -200
77 -512 68 -785 -7 -237 -36 -535 -66 -675 -6 -27 -15 -77 -20 -110 -6 -33
-21 -123 -34 -200 -14 -77 -36 -207 -50 -290 -14 -82 -30 -170 -36 -195 -5
-25 -12 -56 -14 -70 -30 -176 -127 -643 -152 -737 -8 -28 -14 -56 -14 -62 0
-8 2111 -11 7655 -11 l7655 0 0 2844 0 2844 -37 -4 c-21 -2 -103 -8 -183 -14
-621 -42 -2190 -150 -2212 -153 -17 -2 -29 2 -33 11 -3 8 -4 16 -2 18 4 5 410
36 1357 104 459 33 894 65 965 70 72 6 133 10 138 10 4 0 7 375 7 834 0 825 0
834 -20 839 -11 3 -17 1 -14 -4z m-3385 -1220 c4 -8 12 -26 19 -41 16 -34 38
-40 126 -38 74 2 99 -11 92 -46 -3 -19 -25 -27 -99 -38 -38 -6 -48 -4 -53 9
-3 9 -2 14 3 11 5 -3 11 1 15 9 4 10 -1 15 -14 15 -32 0 -34 1 -54 18 -17 16
-66 103 -66 118 0 11 23 -2 31 -17z m-4861 -869 c8 -16 8 -20 -4 -20 -8 0 -17
-4 -20 -8 -2 -4 20 -3 49 2 32 6 51 14 47 20 -3 6 11 0 32 -12 48 -28 50 -28
29 5 -12 19 -5 14 25 -15 23 -23 46 -42 51 -42 5 0 26 -21 47 -47 36 -43 33
-50 -7 -16 -14 12 -22 12 -50 0 -32 -13 -36 -11 -96 25 l-63 38 -191 -30
c-193 -30 -229 -29 -229 4 0 26 32 39 183 77 179 45 183 45 197 19z m-495
-104 c-9 -13 -26 -27 -38 -29 -12 -2 5 -3 37 -1 43 3 67 0 85 -12 l26 -17 -24
27 c-40 43 -14 30 59 -31 37 -32 64 -61 59 -64 -6 -3 2 -14 16 -23 15 -10 24
-20 21 -23 -3 -3 -12 0 -21 7 -13 11 -14 10 -9 -4 4 -11 1 -16 -10 -16 -9 0
-16 2 -16 4 0 2 -3 12 -7 22 -5 13 -3 15 7 9 8 -5 11 -4 6 3 -4 7 -17 8 -35 2
-24 -7 -38 -2 -91 33 l-62 41 -179 -29 c-161 -26 -181 -27 -195 -14 -13 14
-13 18 3 36 21 24 232 85 300 87 24 0 43 4 43 8 0 6 32 17 38 12 2 -1 -4 -14
-13 -28z m-491 -101 c-17 -26 -39 -33 -47 -15 -3 6 -4 5 -3 -2 2 -8 18 -13 39
-13 19 -1 33 3 30 8 -3 5 9 2 25 -7 37 -19 51 -21 34 -4 -7 7 -12 17 -12 23 0
6 3 6 8 -1 4 -6 35 -35 70 -64 35 -28 61 -54 58 -58 -3 -3 -1 -11 5 -18 8 -9
5 -15 -10 -24 -12 -6 -21 -9 -21 -6 0 2 -3 12 -7 22 -5 13 -3 15 7 9 8 -5 11
-4 7 2 -4 6 -20 9 -37 7 -23 -3 -47 6 -88 33 l-57 36 -167 -23 c-135 -18 -171
-20 -183 -10 -33 27 0 46 132 79 70 17 148 33 172 36 24 2 46 7 49 10 13 13
11 3 -4 -20z m-1054 -469 c0 -19 -9 -45 -21 -60 -26 -33 -110 -96 -167 -125
-24 -12 -45 -28 -49 -36 -3 -8 -11 -15 -19 -15 -8 0 -14 -6 -15 -12 0 -7 -11
9 -23 37 l-23 50 37 28 c48 35 263 166 273 167 4 0 7 -15 7 -34z m-486 -82
c71 -69 189 -359 249 -614 49 -204 96 -504 82 -518 -3 -3 -5 3 -5 13 0 13 -3
15 -14 6 -11 -9 -20 18 -51 147 -85 359 -161 597 -236 742 -53 102 -91 147
-140 161 -21 7 -39 14 -39 15 0 2 9 18 20 36 34 56 84 61 134 12z m6442 -647
c84 -117 82 -135 -2 -23 -36 48 -71 89 -79 92 -31 12 -1233 -208 -1282 -235
-18 -10 -193 -212 -216 -249 -22 -38 -32 -37 -18 1 13 34 215 264 238 271 119
36 1210 236 1267 233 24 -2 39 -16 92 -90z m-6983 -438 c21 -54 6 -107 -38
-128 -26 -12 -46 -12 -165 4 -100 14 -127 21 -105 26 17 4 24 7 17 8 -7 0 -31
10 -54 21 -33 16 -53 18 -102 13 -33 -3 -59 -3 -56 -1 3 3 100 24 215 46 116
23 219 43 230 45 39 9 42 7 58 -34z m481 -674 c41 -184 110 -397 177 -546 28
-61 48 -113 46 -116 -7 -6 -58 72 -81 122 -57 124 -153 456 -170 590 -9 72 8
42 28 -50z m136 -310 c36 -100 91 -208 124 -243 27 -30 74 -55 91 -48 7 2 16
2 19 -1 7 -8 -53 -63 -69 -63 -31 0 -133 166 -175 285 -12 33 -25 68 -31 77
-11 22 -12 106 -1 93 5 -6 24 -50 42 -100z"/>
<path d="M8535 5956 c-181 -59 -385 -195 -629 -419 -105 -96 -169 -189 -280
-406 -76 -150 -151 -320 -143 -327 8 -9 25 22 67 121 58 136 130 280 203 402
65 111 113 160 327 334 186 152 330 239 475 288 50 17 81 30 70 30 -11 0 -51
-10 -90 -23z"/>
<path d="M246 3955 c-3 -8 -34 -13 -98 -15 -151 -3 -143 -1 -146 -37 -2 -22 1
-33 10 -33 7 0 81 13 163 29 83 16 178 32 212 36 61 7 79 25 25 25 -15 1 -57
2 -94 4 -47 2 -68 0 -72 -9z"/>
<path d="M2220 3939 c-280 -9 -644 -30 -650 -36 -3 -3 49 -3 115 1 295 14 886
19 973 7 133 -18 438 -96 434 -110 -2 -8 4 -10 18 -6 13 4 22 1 26 -8 3 -8 25
-17 49 -21 70 -9 115 -31 115 -57 0 -19 -4 -21 -40 -16 -22 3 -43 1 -46 -4
-10 -17 -34 -9 -34 11 0 13 -10 24 -26 31 -31 11 -47 2 -21 -12 9 -6 17 -16
17 -24 0 -22 -65 11 -80 41 -14 25 -40 40 -40 23 0 -6 -7 -9 -15 -5 -8 3 -15
1 -15 -5 0 -6 -7 -3 -16 5 -17 18 -54 22 -54 6 0 -5 -9 -10 -20 -10 -11 0 -20
7 -20 15 0 8 -9 15 -20 15 -11 0 -20 6 -20 14 0 15 -28 28 -64 31 -17 2 -17 0
4 -17 23 -18 23 -18 3 -36 -19 -16 -19 -18 -5 -32 15 -14 15 -15 0 -18 -9 -2
-33 4 -54 13 -36 15 -39 15 -52 -2 -10 -15 -14 -15 -21 -4 -10 16 -64 18 -69
3 -1 -5 -12 -8 -22 -5 -23 6 -25 0 -9 -29 10 -19 9 -20 -10 -15 -12 3 -21 0
-21 -6 0 -6 -7 -2 -16 9 -13 16 -15 16 -10 2 3 -12 0 -18 -9 -18 -8 0 -15 5
-15 10 0 6 -6 10 -14 10 -8 0 -23 11 -33 23 -10 13 -25 26 -33 30 -8 3 4 5 27
4 24 -1 43 -3 43 -4 0 -1 -7 -9 -16 -17 -17 -17 -18 -17 49 -21 38 -2 47 6 25
24 -63 50 -91 91 -65 91 7 0 4 5 -5 10 -11 7 -26 7 -43 0 -14 -5 -41 -10 -58
-11 -24 -1 -18 -4 26 -14 67 -14 83 -25 41 -26 -16 0 -60 -2 -99 -5 -38 -2
-99 0 -135 6 -114 19 -113 19 -100 35 10 13 8 15 -14 15 -14 0 -26 5 -26 11 0
8 -4 8 -12 2 -16 -12 -56 -14 -62 -4 -3 4 0 8 7 9 24 2 47 8 53 15 4 4 12 0
18 -8 8 -11 37 -17 101 -21 49 -2 86 -1 81 3 -11 12 -146 41 -175 38 -14 -1
-59 -8 -99 -14 -41 -6 -78 -9 -83 -5 -5 3 -28 7 -51 10 -32 3 -46 -1 -60 -16
-10 -11 -29 -21 -41 -22 -12 0 -29 -2 -37 -3 -8 -1 -22 2 -31 6 -8 4 -41 9
-72 10 -31 1 -57 6 -57 11 0 12 -34 10 -47 -3 -6 -6 -35 -12 -64 -13 -49 -1
-54 1 -67 27 l-13 28 -132 -6 c-216 -9 -257 -16 -257 -41 0 -8 -3 -14 -7 -15
-5 0 -30 -2 -58 -4 -27 -2 -72 -6 -100 -9 -27 -3 -95 -8 -150 -10 -55 -3 -116
-10 -135 -15 -19 -6 -51 -11 -72 -11 -20 0 -38 -5 -40 -11 -2 -5 -22 -13 -46
-16 -23 -3 -42 -11 -42 -17 0 -7 -37 -11 -114 -11 -70 0 -113 4 -111 10 1 6 0
7 -2 3 -3 -5 -20 -8 -39 -8 l-34 0 0 -1865 0 -1865 1601 2 1601 3 20 50 c10
28 25 64 33 82 8 17 15 34 15 38 0 4 6 21 14 38 45 100 321 901 382 1107 61
205 93 318 102 360 5 25 22 90 36 145 14 55 28 114 31 130 3 17 14 84 26 149
11 66 22 122 23 125 5 9 43 266 61 413 28 230 17 487 -26 633 -52 173 -177
352 -314 450 -34 25 -65 45 -68 45 -3 0 -38 15 -79 34 -126 58 -435 121 -643
131 -188 10 -407 11 -595 4z"/>
</g>
</svg>
