<?xml version="1.0" standalone="no"?>
<!DOCTYPE svg PUBLIC "-//W3C//DTD SVG 20010904//EN"
 "http://www.w3.org/TR/2001/REC-SVG-20010904/DTD/svg10.dtd">
<svg version="1.0" xmlns="http://www.w3.org/2000/svg"
 width="1280.000000pt" height="720.000000pt" viewBox="0 0 1280.000000 720.000000"
 preserveAspectRatio="xMidYMid meet">
<metadata>
Created by potrace 1.12, written by Peter Selinger 2001-2015
</metadata>
<g transform="translate(0.000000,720.000000) scale(0.100000,-0.100000)"
fill="#000000" stroke="none">
<path d="M9071 6663 c-6 -21 -31 -150 -56 -288 -45 -246 -46 -253 -60 -610 -8
-198 -20 -481 -26 -630 -6 -148 -8 -297 -5 -330 3 -33 8 -89 12 -125 3 -36 8
-68 10 -72 2 -3 0 -10 -6 -13 -8 -5 -7 -11 1 -21 6 -8 9 -17 5 -21 -3 -3 -6
-1 -6 5 0 25 -20 10 -40 -29 -17 -33 -24 -38 -35 -29 -11 9 -23 9 -50 0 -19
-6 -43 -10 -52 -7 -26 6 29 27 72 27 29 0 35 5 54 45 31 65 28 75 -16 68 -21
-3 -43 -9 -48 -14 -13 -9 -162 -49 -186 -49 -10 0 -30 11 -46 24 -15 13 -46
29 -67 35 -22 5 -55 23 -75 39 -20 16 -49 36 -66 45 -16 8 -41 26 -55 39 -29
27 -299 208 -311 208 -4 0 -12 7 -17 16 -12 21 -82 37 -82 18 0 -9 -11 -14
-28 -14 -15 0 -33 -5 -40 -12 -9 -9 -12 -8 -12 5 0 25 -17 21 -36 -8 -9 -15
-30 -27 -50 -31 -41 -8 -45 -31 -9 -62 14 -12 28 -22 31 -22 9 0 126 -73 142
-87 11 -11 65 -381 57 -391 -1 -1 -11 -4 -21 -6 -19 -4 -208 -52 -429 -108
-158 -40 -299 -79 -304 -83 -11 -12 29 -32 55 -28 87 13 464 97 632 139 59 15
62 18 62 47 0 17 2 28 4 26 5 -4 31 -203 39 -286 2 -23 10 -49 17 -58 7 -9 8
-15 2 -15 -6 0 -12 5 -14 11 -6 17 -39 -2 -49 -28 -5 -13 -9 -36 -9 -50 0 -48
61 -70 92 -34 13 15 26 18 55 15 21 -2 44 -5 51 -6 17 -2 16 -7 -13 -72 -40
-90 -44 -237 -11 -390 24 -112 24 -120 8 -133 -51 -40 -109 -53 -139 -30 -7 5
-17 6 -22 2 -11 -6 -76 13 -141 42 -139 61 -161 74 -171 100 -15 40 1 48 94
48 l82 0 3 33 c2 21 -3 41 -13 52 -10 11 -17 35 -17 57 0 26 -7 43 -21 56 -20
17 -33 19 -133 13 -72 -4 -114 -2 -121 5 -14 14 -115 7 -121 -8 -2 -7 4 -13
12 -13 25 0 86 -43 86 -61 0 -8 5 -20 12 -27 8 -8 8 -15 -2 -27 -12 -14 -14
-14 -29 3 -9 10 -21 27 -27 38 -12 21 -74 33 -74 14 0 -7 9 -14 20 -17 11 -3
20 -9 20 -14 0 -12 -46 -23 -65 -15 -8 3 -15 1 -15 -4 0 -6 -4 -10 -10 -10 -5
0 -20 -11 -34 -25 -20 -20 -35 -25 -74 -25 -40 0 -53 -5 -75 -28 -15 -16 -25
-31 -22 -34 12 -11 -59 -28 -92 -22 -24 5 -38 15 -50 38 -21 42 -61 74 -103
82 -19 4 -42 14 -51 23 -35 35 -55 46 -73 43 -10 -2 -23 1 -29 7 -6 6 -19 11
-29 11 -10 0 -18 6 -18 13 0 6 -17 19 -38 28 -46 20 -164 39 -176 29 -5 -5
-15 -6 -24 -3 -12 5 -14 1 -9 -25 6 -27 4 -32 -13 -32 -11 0 -20 -4 -20 -8 0
-5 -11 -15 -25 -22 -19 -10 -25 -22 -26 -49 0 -29 -2 -32 -9 -16 -8 18 -9 17
-9 -7 -1 -18 -10 -33 -26 -44 -30 -20 -32 -35 -5 -54 11 -8 20 -20 20 -28 0
-7 7 -15 16 -19 8 -3 20 -17 25 -30 8 -21 12 -22 31 -13 22 11 22 10 4 -4 -11
-9 -28 -16 -38 -16 -10 0 -29 -6 -41 -14 -52 -34 -189 -80 -306 -101 -106 -20
-149 -34 -271 -90 -197 -90 -262 -111 -425 -139 -271 -47 -553 -141 -647 -216
-20 -17 -44 -30 -52 -30 -9 0 -25 -9 -36 -20 -24 -24 -39 -25 -54 -5 -7 9 -33
17 -65 19 -36 3 -50 1 -40 -5 20 -13 -27 -12 -90 2 -46 10 -55 8 -87 -12 -20
-12 -52 -23 -72 -25 -91 -6 -162 -18 -162 -25 0 -4 24 -12 53 -18 118 -22 133
-25 150 -27 10 -1 23 -6 29 -12 8 -8 1 -10 -28 -5 l-39 6 23 -22 c12 -12 22
-23 22 -24 0 -1 -20 -1 -45 0 -25 0 -45 -2 -45 -7 0 -17 31 -32 54 -26 14 3
37 1 53 -5 27 -10 27 -11 8 -22 -11 -6 -63 -11 -117 -11 -105 0 -122 -10 -32
-19 32 -3 64 -13 72 -21 15 -15 -1 -15 -95 -2 -13 2 -23 -1 -23 -5 0 -5 23 -9
51 -9 31 0 48 -4 44 -10 -3 -5 2 -9 12 -8 10 0 38 0 63 -2 25 -2 -30 -6 -122
-9 -102 -4 -171 -10 -178 -17 -8 -8 -3 -11 18 -10 17 1 28 4 25 9 -2 4 31 6
74 5 l78 -2 -70 -6 c-67 -6 -68 -7 -17 -8 28 -1 52 -6 52 -12 0 -5 37 -11 83
-13 45 -2 26 -3 -43 -1 -69 2 -134 5 -145 7 -11 2 -14 2 -7 0 6 -3 12 -8 12
-13 0 -4 24 -11 53 -15 28 -3 61 -9 72 -13 17 -5 16 -7 -10 -12 l-30 -7 25
-11 25 -11 -25 -1 c-14 -1 -80 -1 -147 0 -66 1 -124 -3 -126 -7 -3 -5 11 -8
31 -6 29 2 33 1 17 -6 -16 -8 -11 -10 25 -12 25 -1 63 -2 85 -1 33 1 36 0 20
-8 -16 -8 -11 -9 22 -6 24 2 45 1 48 -4 2 -4 50 -11 105 -15 57 -4 98 -11 95
-16 -4 -5 31 -10 82 -10 48 -1 102 -5 118 -9 37 -10 -328 -4 -369 6 -21 5 -27
4 -22 -5 20 -31 -53 -58 -112 -42 -20 6 -32 6 -32 0 0 -5 -26 -10 -57 -10
l-58 -1 60 -10 c44 -7 215 -6 263 2 1 0 2 4 2 9 0 5 -10 12 -22 14 -13 3 0 3
27 1 28 -2 87 -4 133 -4 48 0 82 -4 82 -10 0 -5 -14 -10 -31 -10 -20 0 -28 -4
-23 -11 5 -8 -10 -10 -52 -5 -33 3 -88 2 -124 -2 l-65 -8 66 -12 c36 -7 74
-12 85 -13 18 0 18 -1 -1 -9 -15 -6 -6 -9 32 -9 31 -1 53 -6 56 -13 4 -10 7
-10 18 -1 7 7 20 13 28 13 14 0 14 -2 2 -9 -11 -7 -7 -10 15 -14 22 -3 19 -5
-16 -7 -25 -1 -52 -3 -60 -4 -8 -2 -32 -3 -53 -4 -22 -1 -36 -6 -32 -12 6 -10
-37 -25 -67 -22 -10 0 -18 -4 -18 -9 0 -6 -19 -9 -43 -8 -24 2 -48 -1 -55 -5
-7 -4 -12 -2 -12 4 0 6 -14 8 -37 5 -55 -9 -223 -11 -223 -4 0 11 -477 9 -505
-1 -16 -6 -25 -6 -25 0 0 5 -8 7 -17 3 -10 -3 -3 8 15 26 30 28 40 31 94 31
80 0 71 7 -15 12 -71 5 -105 25 -69 41 11 4 7 5 -10 2 -23 -4 -29 -1 -34 20
-4 15 -1 32 6 40 7 8 9 15 4 15 -5 0 -2 5 6 11 13 9 12 10 -2 5 -22 -7 -48 2
-48 16 0 7 57 7 167 2 199 -10 254 -8 265 9 6 9 8 9 8 0 0 -7 10 -13 23 -13
13 0 29 -6 36 -13 11 -10 12 -9 6 2 -7 11 -1 13 33 8 24 -4 43 -3 47 3 3 5 20
10 36 10 18 0 28 -4 24 -10 -3 -5 -1 -10 4 -10 6 0 11 5 11 10 0 6 10 11 23
11 12 1 -9 5 -48 10 -100 10 -332 10 -314 -2 8 -5 9 -9 2 -9 -21 0 -43 12 -37
21 3 5 -5 9 -18 9 -19 0 -20 -2 -8 -11 11 -7 -14 -9 -85 -5 -55 3 -120 6 -143
5 -29 0 -42 4 -37 11 4 6 19 9 33 8 19 -2 26 1 24 11 -2 9 3 11 13 7 9 -3 14
-2 11 3 -7 11 26 20 79 22 39 2 39 2 -10 9 -33 4 -53 3 -57 -4 -5 -8 -8 -7 -8
1 0 7 -12 12 -27 12 -16 0 -41 3 -58 6 -16 4 -49 6 -73 6 -23 -1 -42 3 -42 9
0 5 8 10 17 10 14 0 14 3 5 12 -10 10 -15 10 -22 -1 -12 -20 -51 -25 -44 -6 7
16 0 18 -58 15 -22 -1 -38 3 -38 9 0 6 5 11 10 11 6 0 10 11 10 25 0 17 6 25
18 25 14 0 15 2 2 10 -12 8 -12 10 5 10 16 0 17 2 5 9 -8 6 -18 7 -22 5 -4 -3
-8 -1 -8 3 0 5 -33 8 -72 6 -40 -1 -64 1 -53 4 11 3 28 12 37 20 10 9 29 14
47 11 17 -2 28 -1 25 4 -3 4 44 5 103 3 60 -3 121 -1 138 5 25 8 22 9 -22 5
-30 -3 -53 -1 -55 5 -2 5 -50 10 -110 12 -82 1 -108 5 -108 15 0 9 -14 13 -45
13 -25 0 -45 -4 -45 -9 0 -6 18 -9 40 -8 22 2 40 -1 40 -5 0 -4 -20 -8 -45 -8
-33 0 -45 4 -45 15 0 8 -4 15 -9 15 -4 0 -6 -11 -3 -25 2 -15 0 -25 -7 -25 -7
0 -9 4 -6 10 3 5 0 7 -8 4 -8 -3 -18 -1 -22 5 -3 6 1 11 9 11 14 0 14 2 -1 18
-14 13 -31 16 -75 14 -39 -3 -58 0 -58 8 0 6 -4 8 -10 5 -5 -3 -10 -2 -10 4 0
5 8 12 18 14 9 2 7 3 -5 2 -13 -1 -30 3 -39 9 -12 9 -6 11 30 9 25 -1 46 2 46
7 0 6 -22 10 -49 10 -28 0 -52 4 -55 9 -7 10 16 21 43 21 10 0 28 9 41 20 21
18 22 20 4 22 -10 0 -25 1 -32 1 -10 -1 -10 2 -1 13 9 11 8 14 -4 14 -37 0
-77 -14 -77 -26 0 -9 -10 -13 -27 -13 -24 2 -25 2 -5 6 12 2 22 9 22 15 0 5
-7 8 -15 5 -8 -4 -17 -2 -20 3 -3 4 1 11 7 13 7 3 -17 6 -54 6 -61 1 -88 12
-55 24 13 4 7 5 -165 7 -95 1 -118 4 -118 16 0 8 -3 14 -7 15 -5 0 -24 2 -43
4 -19 2 -123 11 -230 20 -107 9 -210 20 -229 25 -19 5 -37 7 -41 5 -3 -2 -35
0 -69 5 -36 5 -73 5 -86 0 -13 -5 -26 -5 -32 1 -5 5 -47 12 -94 14 -46 2 -101
7 -121 10 -20 3 -39 1 -43 -4 -3 -6 -17 -6 -36 1 -16 5 -38 8 -49 5 -11 -3
-23 -1 -26 5 -3 5 -38 9 -77 8 -40 -1 -74 -1 -77 0 -3 1 -45 4 -95 6 -151 6
-349 26 -367 35 -10 6 -19 5 -23 -1 -4 -7 -13 -7 -25 0 -11 6 -54 10 -97 8
-43 -1 -102 2 -130 6 l-53 8 0 -1476 0 -1476 6400 0 6400 0 0 1578 0 1578 -67
29 c-75 32 -51 31 -413 19 -246 -8 -262 -8 -335 1 -55 6 -66 4 -137 -28 -42
-20 -89 -35 -105 -35 -15 1 -47 -9 -70 -21 -23 -11 -53 -21 -66 -21 -23 0
-202 -59 -228 -76 -6 -3 -55 -8 -108 -9 -82 -2 -99 0 -116 16 -19 17 -30 18
-124 10 -88 -8 -106 -7 -132 7 -30 17 -30 17 -58 -17 l-28 -34 -140 6 c-104 4
-154 2 -192 -8 -59 -15 -125 -9 -117 11 6 17 -20 38 -39 30 -8 -3 -15 -12 -15
-20 0 -18 -6 -17 -234 39 -98 25 -197 54 -220 64 -23 11 -68 22 -101 25 -33 2
-105 19 -160 36 -93 30 -193 56 -240 64 -28 4 -108 56 -100 64 3 4 19 12 34
17 46 17 103 90 112 143 12 71 10 314 -2 374 -13 61 -62 155 -113 214 -26 30
-50 46 -90 58 -60 19 -62 22 -42 49 10 12 28 17 68 17 61 0 105 22 78 39 -8 5
-33 26 -55 45 -22 20 -43 36 -47 36 -4 0 -10 9 -13 21 -6 16 -13 20 -36 17
-16 -3 -29 -2 -29 1 1 12 26 36 40 39 10 1 9 -3 -5 -14 l-20 -17 20 8 c36 13
87 16 80 5 -4 -6 -10 -8 -14 -6 -4 3 -8 -1 -8 -9 0 -23 11 -18 55 25 29 29 49
40 70 40 17 0 167 18 333 40 167 22 312 40 322 40 9 0 17 -7 17 -16 0 -9 21
-63 47 -120 l46 -104 38 41 c41 45 40 43 24 165 -3 27 -8 63 -10 79 -2 17 -11
82 -20 146 -9 63 -15 128 -13 144 3 26 8 30 48 38 25 4 108 23 185 42 77 19
212 50 300 69 200 44 521 123 558 138 23 9 27 16 27 49 0 28 5 39 18 42 9 2
-1 3 -23 1 -22 -2 -33 -1 -23 2 18 6 33 34 18 34 -6 0 -108 -25 -228 -56 -119
-31 -235 -60 -257 -65 -22 -4 -71 -17 -110 -27 -352 -96 -493 -132 -516 -132
-14 0 -19 11 -24 48 -9 71 -26 142 -34 142 -4 0 -19 -25 -34 -55 -20 -41 -27
-71 -27 -113 l0 -58 -142 -36 c-79 -20 -186 -48 -238 -62 -104 -29 -119 -33
-167 -42 l-33 -6 0 216 0 215 -29 22 c-21 16 -33 36 -42 73 -18 81 -75 213
-119 281 -45 69 -44 65 -59 215 -40 384 -61 673 -56 740 14 172 15 160 -11
160 -18 0 -25 -8 -33 -37z m933 -1948 l7 -100 -298 -33 c-164 -18 -304 -33
-311 -32 -11 0 -12 12 -7 53 4 28 11 59 16 68 5 10 49 26 126 43 65 15 163 38
218 51 99 24 239 53 241 51 1 0 5 -46 8 -101z m-2017 9 c-4 -4 15 -18 41 -31
67 -34 106 -57 110 -65 2 -5 8 -8 13 -8 5 0 35 -18 66 -40 l58 -40 100 0 c108
0 122 -15 24 -27 -42 -5 -60 -13 -82 -36 -23 -25 -49 -35 -163 -64 -75 -18
-138 -32 -141 -29 -7 6 -41 330 -36 339 2 4 7 7 10 7 4 0 3 -3 0 -6z m856
-496 c-17 -51 -94 -210 -106 -219 -5 -3 -8 -10 -7 -15 2 -17 -33 -83 -41 -78
-5 3 -11 -7 -15 -21 -3 -13 -9 -23 -14 -20 -10 6 -32 -38 -28 -56 2 -7 -4 -14
-12 -14 -18 0 -24 37 -19 123 0 15 37 96 82 181 69 133 82 152 93 137 9 -13
13 -14 17 -4 4 10 7 11 14 0 7 -10 14 -8 28 8 10 11 19 20 20 20 2 0 -4 -19
-12 -42z m-499 -15 c-33 -68 -31 -105 8 -138 22 -19 40 -26 60 -23 25 4 28 1
28 -23 0 -14 -7 -32 -15 -39 -12 -10 -15 -10 -15 0 0 8 -13 10 -40 7 -26 -3
-40 -1 -39 7 1 6 1 21 0 34 -1 22 -3 22 -61 -19 -60 -42 -60 -42 -127 -35 -38
4 -73 12 -80 19 -11 12 -39 205 -30 213 6 6 252 41 298 43 l36 1 -23 -47z
m921 -213 c57 -74 81 -130 90 -214 7 -59 -1 -164 -10 -154 -2 2 -7 19 -10 38
-12 78 -19 96 -69 180 -50 88 -87 135 -120 155 -12 8 -15 19 -10 46 l6 37 39
-16 c25 -9 54 -35 84 -72z m-922 -219 c15 -6 19 -19 20 -76 1 -41 -2 -70 -8
-70 -5 -1 -19 -6 -30 -12 -11 -6 -35 -14 -52 -18 -26 -5 -33 -12 -33 -30 0
-15 -9 -29 -21 -36 -15 -8 -19 -8 -15 0 4 6 3 11 -2 11 -20 0 -39 144 -22 165
6 8 9 18 6 24 -3 5 2 7 11 5 10 -3 34 6 53 20 36 26 61 30 93 17z m-4753
-1861 c-10 -7 19 -10 93 -12 59 -1 119 -3 135 -4 15 -2 83 -6 152 -9 171 -8
228 -13 240 -20 5 -3 10 -1 10 5 0 7 6 10 14 7 8 -3 16 -2 18 3 2 5 23 6 48 2
l45 -6 -40 -8 c-22 -5 -53 -12 -70 -15 -16 -3 -32 -9 -35 -14 -3 -5 -36 -10
-73 -11 -45 -2 -67 -7 -67 -15 0 -7 10 -13 23 -14 19 0 18 -2 -8 -11 -27 -10
-28 -12 -10 -19 15 -6 10 -8 -17 -7 -21 1 -38 6 -38 11 0 5 -7 4 -16 -3 -12
-11 -15 -11 -12 0 2 8 -2 14 -9 15 -6 0 -15 4 -20 9 -4 5 4 7 19 4 16 -3 25
-1 22 4 -6 10 -34 7 -68 -7 -15 -7 -17 -5 -11 6 5 8 -5 2 -22 -12 -31 -26 -33
-26 -175 -23 -79 2 -155 3 -170 3 -18 1 -28 6 -28 16 0 11 11 15 45 15 25 0
45 5 45 10 0 6 -9 10 -20 10 -11 0 -20 5 -20 10 0 6 -13 10 -29 10 -17 0 -33
5 -36 10 -3 6 -35 10 -71 10 -49 0 -66 4 -71 15 -8 23 -4 24 77 30 40 2 75 7
78 10 3 3 24 5 46 5 30 0 37 -3 26 -10z m-2400 -745 l0 -155 -73 0 c-43 0 -78
5 -85 12 -8 8 -12 48 -12 115 0 113 5 123 69 123 28 0 31 3 31 30 0 28 3 30
35 30 l35 0 0 -155z m-742 -57 c3 -178 3 -178 -99 -178 l-69 0 0 30 c0 29 2
30 45 30 57 0 59 18 3 22 l-43 3 -3 114 c-2 85 1 117 10 123 7 4 45 7 83 6
l70 -3 3 -147z m170 139 c7 -7 13 -66 14 -133 l3 -119 48 -3 c44 -3 47 -5 47
-32 0 -27 3 -29 43 -32 l42 -3 3 -123 3 -123 -38 3 -38 3 -5 95 -4 95 -6 -95
-5 -95 -35 0 -35 0 -3 123 -3 122 -28 0 c-57 0 -61 5 -61 91 0 46 -4 79 -10
79 -6 0 -10 -27 -10 -61 l0 -60 -37 3 -38 3 -3 124 c-1 69 0 131 2 138 7 18
139 18 154 0z m183 3 c17 -10 19 -22 19 -125 l0 -115 -72 0 c-40 0 -79 4 -86
9 -9 5 -12 27 -10 72 l3 64 43 3 c24 2 42 8 42 15 0 8 -15 11 -45 9 -44 -4
-45 -4 -45 26 0 19 7 35 18 41 22 14 108 14 133 1z m197 1 c1 -1 2 -55 2 -121
l0 -120 -35 0 -35 0 0 90 c0 53 -4 90 -10 90 -6 0 -10 -37 -10 -90 l0 -90 -35
0 -35 0 0 125 0 125 78 -4 c42 -2 78 -5 80 -5z m-458 -311 c0 -17 7 -20 45
-20 45 0 45 0 45 -35 0 -35 0 -35 -45 -35 l-45 0 0 -50 c0 -27 5 -50 10 -50 6
0 10 20 10 45 0 45 0 45 35 45 l35 0 0 -70 c0 -81 -9 -90 -87 -90 -72 0 -78 7
-78 95 0 53 -4 75 -12 75 -8 0 -13 14 -13 35 0 19 5 35 10 35 6 0 10 9 10 20
0 17 7 20 40 20 33 0 40 -3 40 -20z m760 -10 c0 -5 20 -10 45 -10 45 0 45 0
45 -35 0 -35 0 -35 -45 -35 l-45 0 0 -52 c0 -28 3 -48 7 -44 4 4 8 24 8 44 0
35 2 37 38 40 l37 3 0 -70 c0 -82 -9 -91 -85 -91 -77 0 -85 9 -85 95 0 40 -4
77 -10 80 -14 8 -13 41 2 65 9 14 24 20 50 20 21 0 38 -4 38 -10z m-302 -17
c5 -10 9 -43 8 -73 l-1 -55 -47 -3 c-30 -2 -48 -8 -48 -16 0 -8 16 -12 48 -12
47 1 47 1 43 -29 -4 -38 -15 -45 -74 -45 -84 0 -87 5 -87 129 0 59 3 111 7
114 3 4 37 7 74 7 55 0 70 -3 77 -17z m192 -13 c0 -29 -2 -30 -46 -30 -25 0
-43 -4 -40 -8 3 -5 23 -8 46 -6 39 2 40 2 40 -32 0 -34 0 -34 -45 -34 l-45 0
0 -56 0 -55 -37 3 -38 3 -3 109 c-2 71 1 113 9 122 8 10 34 14 85 14 l74 0 0
-30z m-457 -243 c3 -9 20 -13 46 -11 40 2 41 1 41 -32 0 -34 -1 -34 -45 -34
l-45 0 0 -56 c0 -34 4 -53 10 -49 6 3 10 26 10 51 0 44 0 44 35 44 l35 0 0
-74 c0 -85 -1 -86 -85 -86 -71 0 -82 13 -84 92 -1 35 -4 80 -7 101 -4 23 -2
43 6 52 15 19 76 20 83 2z m495 4 c37 -1 42 -4 42 -25 0 -17 -7 -26 -25 -30
-16 -4 -25 -13 -25 -27 0 -11 -4 -17 -10 -14 -19 12 -10 35 20 54 16 10 27 21
23 24 -3 4 -69 7 -145 7 -107 0 -139 -3 -136 -12 4 -10 32 -12 111 -10 l105 4
-16 -36 c-12 -24 -28 -39 -50 -47 -18 -6 -34 -9 -36 -7 -21 34 -59 78 -67 78
-5 0 2 -18 16 -41 37 -57 26 -69 -12 -15 -21 29 -40 46 -53 46 -15 0 -20 7
-20 28 l0 27 117 -2 c65 -1 137 -2 161 -2z m-800 -13 c8 -8 12 -50 12 -125 l0
-113 -66 0 c-93 0 -104 8 -104 78 0 67 11 82 57 82 24 0 33 4 33 17 0 13 -3
14 -12 5 -7 -7 -27 -12 -45 -12 -31 0 -33 2 -33 34 0 19 6 37 13 39 25 11 133
7 145 -5z m102 -78 c0 -53 4 -90 10 -90 6 0 10 37 10 90 l0 90 35 0 35 0 0
-119 c0 -134 2 -131 -80 -131 -82 0 -80 -3 -80 131 l0 119 35 0 35 0 0 -90z
m410 60 c0 -23 5 -30 19 -30 11 0 27 -7 35 -16 20 -20 20 -92 1 -118 -8 -11
-15 -28 -15 -38 0 -15 -8 -18 -51 -18 -86 0 -89 4 -89 130 0 118 0 118 63 119
35 1 37 -1 37 -29z m460 -104 c25 -9 55 -25 68 -34 21 -16 23 -23 16 -70 l-7
-51 -25 19 c-36 29 -96 43 -192 45 -105 1 -159 -9 -205 -40 -30 -21 -35 -22
-35 -7 0 9 -3 33 -6 53 -6 33 -3 38 32 59 20 13 60 29 88 37 64 16 206 10 266
-11z"/>
<path d="M1175 544 c-89 -19 -104 -26 -92 -44 8 -14 8 -25 0 -43 -11 -24 -11
-24 28 -13 26 7 35 13 26 19 -9 7 -9 10 1 14 6 2 12 11 12 19 0 9 4 13 9 9 5
-3 11 3 14 12 4 17 4 17 12 -1 5 -11 3 -26 -4 -37 -9 -16 -8 -19 6 -19 28 0
38 12 38 44 0 42 21 43 35 2 16 -49 37 -53 57 -11 21 45 36 45 31 0 -3 -31 -1
-36 26 -45 40 -14 56 -13 56 5 0 8 -4 15 -10 15 -5 0 -10 5 -10 11 0 5 5 7 10
4 6 -3 10 1 10 9 0 19 -27 34 -79 42 -38 6 -41 5 -41 -15 0 -14 -4 -20 -11
-15 -6 3 -9 15 -6 25 5 17 -1 19 -46 18 -29 -1 -61 -3 -72 -5z"/>
<path d="M12785 4679 c-33 -32 -60 -48 -92 -54 -20 -3 -45 -12 -57 -20 -12 -7
-48 -16 -80 -19 -67 -7 -120 -40 -130 -79 -3 -13 -21 -35 -41 -48 -19 -13 -39
-36 -44 -51 -12 -33 -43 -54 -96 -63 -52 -9 -95 -32 -95 -51 0 -8 -10 -18 -22
-23 -13 -5 -31 -19 -40 -30 -16 -18 -28 -21 -100 -19 -46 0 -96 6 -111 13 -21
9 -41 9 -74 1 -43 -9 -46 -9 -65 17 -11 15 -28 27 -38 27 -10 0 -20 8 -22 18
-6 23 -87 62 -128 62 -17 0 -45 7 -62 16 -23 12 -47 15 -86 11 -65 -7 -102 7
-102 39 0 20 -6 23 -63 29 -75 8 -131 -10 -148 -49 -9 -18 -22 -26 -55 -31
-28 -4 -59 -19 -91 -44 -26 -21 -63 -46 -80 -55 -36 -18 -43 -52 -21 -100 9
-21 8 -29 -5 -44 -10 -10 -17 -26 -17 -34 0 -9 -7 -21 -15 -28 -8 -7 -15 -18
-15 -24 0 -10 -25 -22 -122 -58 -43 -16 -37 -46 9 -50 54 -4 53 -27 -2 -70
-41 -32 -49 -56 -13 -43 7 3 40 1 73 -4 33 -5 48 -9 33 -10 -28 -1 -37 -14
-18 -26 18 -11 11 -36 -10 -33 -10 2 -19 1 -18 -2 1 -3 -4 -15 -10 -27 -11
-19 -9 -22 19 -28 38 -9 169 4 169 16 0 5 -4 9 -10 9 -5 0 -10 5 -10 10 0 6
18 10 40 10 28 0 42 -5 49 -19 10 -19 25 -23 146 -40 33 -5 83 -14 111 -21 64
-14 105 -15 474 -8 285 6 296 5 338 -15 50 -25 52 -48 5 -58 -43 -8 -70 -30
-51 -40 13 -7 364 -34 557 -43 52 -2 97 -9 100 -14 8 -12 97 -23 127 -16 21 5
24 12 24 51 0 38 -3 44 -17 39 -10 -3 -29 3 -43 14 l-25 20 43 0 42 0 0 550
c0 303 -1 550 -2 550 -2 -1 -7 -5 -13 -11z"/>
<path d="M885 4040 c-4 -16 -11 -32 -15 -35 -5 -3 -4 -17 2 -30 10 -22 18 -25
72 -26 34 -1 66 0 71 2 6 1 29 2 52 1 33 -1 41 2 36 14 -4 12 2 14 30 12 43
-2 55 7 41 29 -13 20 -40 28 -161 48 -121 20 -120 20 -128 -15z"/>
<path d="M10465 4062 c-11 -2 -24 -8 -29 -13 -6 -5 -25 -9 -43 -9 -65 0 -109
-55 -64 -80 25 -13 261 -13 281 0 13 8 13 10 -2 10 -9 0 -19 9 -23 19 -3 10
-16 22 -28 25 l-22 6 24 14 24 14 -23 7 c-28 9 -68 12 -95 7z"/>
</g>
</svg>
